<?xml version="1.0" standalone="no"?>
<!DOCTYPE svg PUBLIC "-//W3C//DTD SVG 1.1//EN" "http://www.w3.org/Graphics/SVG/1.1/DTD/svg11.dtd" >
<svg xmlns="http://www.w3.org/2000/svg" xmlns:xlink="http://www.w3.org/1999/xlink" version="1.1">
<metadata></metadata>
<defs>
<font id="agaramonditalic" horiz-adv-x="1024" >
<font-face units-per-em="2048" ascent="1638" descent="-410" />
<missing-glyph horiz-adv-x="512" />
<glyph horiz-adv-x="0" />
<glyph unicode="&#xd;" horiz-adv-x="512" />
<glyph unicode=" "  horiz-adv-x="512" />
<glyph unicode="&#x09;" horiz-adv-x="512" />
<glyph unicode="&#xa0;" horiz-adv-x="512" />
<glyph unicode="!" horiz-adv-x="421" d="M57 68q0 53 36 90t81 37q90 0 90 -93q0 -59 -34.5 -95t-82.5 -36q-90 0 -90 97zM223 420l142 661q31 145 41 179q12 41 33.5 52t74.5 11q88 0 88 -45q0 -12 -39 -107q-16 -43 -33 -86l-254 -665q-6 -12 -24 -12t-29 12z" />
<glyph unicode="&#x22;" horiz-adv-x="778" d="M422 946l37 330q10 84 20 100q18 29 86 29t68 -37q0 -23 -29 -92l-135 -330q-6 -12 -23 -12q-18 0 -24 12zM745 946l37 330q10 84 21 100q18 29 86 29t67 -37q0 -23 -28 -92l-135 -330q-6 -12 -23 -12q-18 0 -25 12z" />
<glyph unicode="#" d="M104 397l43 99h218l135 331h-224l48 99h217l143 352h96l-145 -352h231l142 352h98l-145 -352h204l-41 -99h-204l-140 -331h201l-43 -99h-195l-161 -391h-88l157 391h-233l-162 -391h-86l158 391h-224zM455 496h233l137 331h-231z" />
<glyph unicode="$" d="M90 119q-31 78 10 262q16 20 47 2q0 -96 58 -180q70 -109 201 -133l165 565q-221 125 -221 305q0 164 123 266q117 96 295 103l47 159q14 10 39 11q25 -1 39 -11l-47 -161q135 -12 248 -70q6 -82 -33 -221q-4 -8 -23 -10q-18 -2 -24 4q6 74 -31 137q-49 82 -158 98 l-143 -495q123 -78 178 -142q76 -90 76 -209q0 -188 -143 -299q-131 -100 -330 -100l-57 -193q-12 -12 -41 -12q-27 0 -37 12l57 197q-195 20 -295 115zM483 61q137 2 220 76t83 191q1 170 -149 264zM487 1001q0 -126 129 -210l134 456q-106 -4 -181 -69q-82 -70 -82 -177z " />
<glyph unicode="%" horiz-adv-x="1767" d="M274 788q0 197 119 355q127 168 301 168q111 0 171.5 -75t60.5 -202q0 -188 -123 -350q-125 -168 -283 -168q-121 0 -183.5 74t-62.5 198zM381 -29q561 666 1141 1368q59 0 59 -51q-514 -608 -1145 -1370q-55 0 -55 53zM410 731q0 -154 104 -153q121 0 207 213 q70 172 70 313q0 145 -101 145q-119 0 -207 -209q-73 -172 -73 -309zM1063 248q0 197 119 354q127 168 301 168q111 0 171 -74.5t60 -201.5q0 -188 -123 -351q-125 -168 -282 -168q-121 0 -183.5 74t-62.5 199zM1198 190q0 -154 105 -153q121 0 206 213q70 172 70 313 q0 145 -100 146q-119 0 -207 -209q-74 -173 -74 -310z" />
<glyph unicode="&#x26;" horiz-adv-x="1576" d="M162 381q0 238 196 440q154 160 306 160q57 0 92 -31q8 -6 37 -49q174 141 288 293q74 96 74 172q0 37 -23.5 60.5t-23.5 46.5q0 39 24.5 61t57.5 22q94 0 94 -108q0 -166 -257 -419t-728 -574v-17q0 -178 123 -274q98 -76 240 -76q135 0 268 84q143 92 229 250 q102 188 111 414q-39 35 -107 34q-51 0 -100 -41t-49 -90q0 -18 15 -63t15 -62q0 -57 -67 -57q-88 0 -88 82q0 115 139 229q102 84 203 84q74 0 141 -45q23 -16 131 -114q59 -53 90 -54q41 0 41 64q0 18 -8 47t-8 35q0 18 19.5 34.5t45.5 16.5q76 0 76 -115q0 -55 -39 -96 q-14 -14 -53 -20q-92 -12 -154 -52q-31 -18 -49 13q-39 63 -141 145q0 -94 -8 -172t-47 -180q-59 -147 -160.5 -262t-247.5 -174q-125 -52 -246 -52q-227 0 -348 125q-104 111 -104 285zM303 532q231 160 334 250q2 18 2 49q0 63 -68 64q-74 0 -159.5 -113t-108.5 -250z" />
<glyph unicode="'" horiz-adv-x="425" d="M412 946l37 330q10 84 20 100q18 29 86 29t68 -37q0 -23 -29 -92l-135 -330q-6 -12 -23 -12q-18 0 -24 12z" />
<glyph unicode="(" horiz-adv-x="655" d="M184 305q0 492 402 893q141 141 332 242q27 0 26 -29q-219 -152 -350 -334q-299 -417 -299 -790q0 -381 131 -598q0 -27 -33 -23q-209 217 -209 639z" />
<glyph unicode=")" horiz-adv-x="655" d="M-137 -305q219 152 350 334q299 417 299 790q0 381 -131 598q0 27 33 23q209 -217 209 -639q0 -492 -402 -893q-139 -141 -332 -242q-27 0 -26 29z" />
<glyph unicode="*" horiz-adv-x="819" d="M283 928q-4 16 4 28l262 107l-193 213q-2 14 9.5 25.5t25.5 9.5l219 -183l82 254q26 13 49 -10l-41 -264l279 68q14 -4 18 -21q4 -14 -4 -27l-266 -106l191 -211q2 -14 -8.5 -27.5t-24.5 -11.5l-217 189l-80 -256q-33 -14 -49 12l39 264l-279 -74q-12 4 -16 21z" />
<glyph unicode="+" horiz-adv-x="1146" d="M242 371v100h333v336h121v-336h334v-100h-334v-371h-121v371h-333z" />
<glyph unicode="," horiz-adv-x="512" d="M4 -176q188 86 189 213q0 63 -68 80q-31 8 -31 45q0 33 25.5 55.5t62.5 22.5q68 0 109 -54q37 -45 37 -108q0 -102 -105 -189q-86 -72 -205 -106q-27 12 -14 41z" />
<glyph unicode="-" horiz-adv-x="655" d="M111 395q-1 51 26 76l498 45q12 -14 12 -43q0 -49 -29 -74l-497 -45q-10 14 -10 41z" />
<glyph unicode="." horiz-adv-x="512" d="M94 68q0 53 36 90t81 37q90 0 90 -93q0 -59 -35 -95t-82 -36q-90 0 -90 97z" />
<glyph unicode="/" horiz-adv-x="512" d="M-14 -33l626 1417h119l-627 -1417h-118z" />
<glyph unicode="0" d="M152 367q0 213 94 439t243.5 365.5t311.5 139.5q293 0 293 -393q0 -178 -77 -387t-198 -355q-168 -205 -362 -205q-305 0 -305 396zM309 250q0 -217 156 -217q182 0 342 430q129 346 129 557q0 229 -141 229q-135 0 -263 -221q-92 -162 -157.5 -386t-65.5 -392z" />
<glyph unicode="1" d="M186 20q0 20 13 25l51 6q94 12 127 49t69 162l205 690q31 100 31 140q0 49 -68 57l-94 10q-8 8 -6 23q0 14 10 18q227 39 365 111q20 2 26 -11q-53 -141 -86 -247l-241 -805q-27 -86 -27 -125q0 -37 22.5 -51.5t78.5 -20.5l53 -6q10 -8 8 -27q0 -18 -10 -24 q-156 6 -264 6q-111 0 -250 -6q-12 8 -13 26z" />
<glyph unicode="2" d="M-18 16q0 6 2 11q203 135 419 317q240 201 316 281q178 193 178 352q0 113 -61 178q-59 59 -156 59q-168 0 -307 -188q-16 -8 -31 0q-14 10 -12 31q68 117 181.5 185.5t231.5 68.5q158 0 245 -82t87 -223q0 -222 -342 -488l-174 -135q-274 -213 -274 -242q0 -18 69 -18 h240q135 0 177 17.5t108 105.5q29 10 43 -13q-55 -168 -117 -239q-154 6 -301 6h-295q-160 0 -215 -6q-12 6 -12 22z" />
<glyph unicode="3" d="M-10 6q0 84 86 84q45 0 96 -76q39 -55 117 -55q131 0 266 88q229 150 229 420q0 102 -59 164.5t-168 62.5q-121 0 -242 -104q-37 4 -36 47q0 18 10 33q250 98 366 168q188 113 189 237q0 154 -156 154q-150 0 -305 -180q-18 -2 -28.5 7t-8.5 27q146 228 404 228 q127 0 194.5 -59.5t67.5 -157.5q0 -156 -295 -283q-18 -8 -19 -18q0 -16 35 -23q96 -18 160 -88q72 -78 72 -193q0 -135 -97 -270q-84 -119 -204 -194q-225 -139 -469 -140q-92 0 -148.5 33t-56.5 88z" />
<glyph unicode="4" horiz-adv-x="1044" d="M84 422q0 18 59 78l930 919q27 27 51 27h39q27 0 27 -16q0 -6 -16 -23l-922 -899q-16 -16 -16 -25q0 -14 65 -14h322q37 0 50 9t23 44l113 381q8 31 29 41q63 35 112 35q27 0 8 -64l-116 -393q-16 -53 26 -53h129q4 -8 4 -20q1 -42 -28 -58h-109q-39 0 -52 -8t-24 -41 l-38 -125q-27 -84 -27 -113q0 -45 65 -53l52 -6q10 -8 6 -27q-2 -20 -12 -24q-123 6 -222 6q-115 0 -241 -6q-12 4 -11 24q0 20 13 27l82 6q72 6 100 41q23 27 51 125l35 119q8 27 8 37q0 18 -51 18h-494q-20 0 -20 31z" />
<glyph unicode="5" d="M20 -102q0 20 15 32q336 2 547 160q201 150 200 363q0 338 -469 342q-23 0 -22 18q0 14 14 45l168 356q23 45 90 56l514 69q14 -2 23 -18q-33 -80 -88 -121l-422 -57q-80 -10 -98 -53l-58 -129q-18 -41 17 -46l55 -8q434 -63 434 -403q0 -174 -129 -328 q-115 -137 -287 -211q-215 -92 -479 -104q-25 6 -25 37z" />
<glyph unicode="6" d="M139 371q0 211 127 432q121 207 299 340q319 236 721 276q12 -2 12 -20q2 -18 -8 -25q-168 -43 -250 -74q-160 -57 -288 -153q-203 -150 -326 -383q-115 -223 -115 -434q0 -297 224 -297q133 0 221 145q76 125 75 279q0 106 -50 168.5t-136 62.5q-59 0 -106 -18 q-18 25 -7 37q78 63 179 63q135 0 213 -80q84 -90 84 -260q0 -174 -140 -313q-147 -145 -350 -146q-184 0 -281.5 106.5t-97.5 293.5z" />
<glyph unicode="7" d="M123 -88l868 1167q27 37 27 56q0 25 -57 24h-392q-100 0 -129 -10q-45 -14 -102 -84q-8 -8 -25 -2q-16 6 -20 16q66 98 106 209q92 -6 215 -6h347q250 0 276 6q18 -6 14 -24q-106 -98 -284 -340l-781 -1055q-25 -4 -45 10.5t-18 32.5z" />
<glyph unicode="8" d="M113 281q0 160 131 268q72 59 256 143q-158 104 -158 252q0 152 115.5 259.5t275.5 107.5q150 0 242 -88q86 -84 86 -213q0 -203 -318 -318q203 -143 203 -325q0 -178 -139 -291q-129 -105 -311 -105q-166 0 -274.5 83t-108.5 227zM268 287q0 -125 74 -195 q64 -59 162 -59q115 0 192 71q88 82 88 224q0 184 -229 319q-287 -123 -287 -360zM485 997q0 -82 60 -149q41 -49 143 -115q227 98 227 299q0 96 -51 156.5t-141 60.5q-96 0 -167 -69.5t-71 -182.5z" />
<glyph unicode="9" d="M10 -100q-4 16 4 24q440 113 676 412q113 143 182 332q68 180 68 325q0 256 -195 256q-129 0 -219 -119.5t-90 -271.5q0 -236 178 -235q41 0 78 8q27 -12 8 -39q-70 -49 -163 -49q-121 0 -198 82t-77 213q0 172 139 317q148 156 349 156q182 0 274 -113q82 -100 82 -274 q0 -236 -176 -498q-307 -459 -905 -549q-12 4 -15 23z" />
<glyph unicode=":" horiz-adv-x="512" d="M94 68q0 53 36 90t81 37q90 0 90 -93q0 -59 -35 -95t-82 -36q-90 0 -90 97zM274 680q0 53 36 90t81 37q90 0 90 -92q0 -59 -34.5 -95t-81.5 -36q-90 0 -91 96z" />
<glyph unicode=";" horiz-adv-x="512" d="M4 -176q188 86 189 213q0 63 -68 80q-31 8 -31 45q0 33 25.5 55.5t62.5 22.5q68 0 109 -54q37 -45 37 -108q0 -102 -105 -189q-86 -72 -205 -106q-27 12 -14 41zM274 680q0 53 36 90t81 37q90 0 90 -92q0 -59 -34.5 -95t-81.5 -36q-90 0 -91 96z" />
<glyph unicode="&#x3c;" horiz-adv-x="1146" d="M242 373v92l796 379v-119l-649 -303v-4l649 -305v-117z" />
<glyph unicode="=" horiz-adv-x="1146" d="M242 217v100h788v-100h-788zM242 524v101h788v-101h-788z" />
<glyph unicode="&#x3e;" horiz-adv-x="1146" d="M242 -4v117l649 305v4l-649 303v119l796 -379v-92z" />
<glyph unicode="?" horiz-adv-x="614" d="M135 68q0 53 36 90t81 37q90 0 90 -93q0 -59 -35 -95t-82 -36q-90 0 -90 97zM217 588q0 117 166 211l127 71q166 94 166 187q0 66 -43 105.5t-101 39.5q-43 0 -89 -22.5t-48 -22.5q-39 0 -39 57q0 43 42 76t106 33q90 0 164.5 -90t74.5 -201q0 -182 -211 -299l-137 -76 q-94 -51 -94 -133q0 -47 18 -98q-12 -23 -32 -10q-70 88 -70 172z" />
<glyph unicode="@" horiz-adv-x="1576" d="M236 600q0 348 245 574q233 211 563 210q281 0 449 -163q156 -150 156 -369q0 -205 -142 -344q-150 -150 -389 -150q-147 0 -147 45q0 23 16 64l51 129l-4 2q-92 -96 -207.5 -168t-179.5 -72q-84 0 -84 93q0 39 33 116q43 100 123 199q211 258 409 258q60 0 76 -45 l51 104q12 4 25 4q47 0 74 -28q-197 -453 -240 -567q-8 -20 -8 -35q0 -33 55 -31q170 6 281 115q119 117 119 303q0 213 -152 342t-383 129q-293 0 -477 -215q-172 -203 -172 -498q0 -219 129 -373q162 -190 481 -190q150 0 318 72q27 -12 16 -39q-166 -104 -395 -105 q-279 0 -471 154q-219 176 -219 479zM725 479q0 -27 25 -26q43 0 163 106q70 61 150 176q74 102 94 158q-20 59 -88 59q-53 0 -129 -61q-84 -68 -149.5 -197t-65.5 -215z" />
<glyph unicode="A" horiz-adv-x="1220" d="M-111 -6q-20 27 5 51l55 6q84 10 147 86q84 102 338 461l361 508q111 154 123 211q43 6 98 36.5t51 30.5q25 0 25 -16q0 -14 -7 -96q-8 -106 -14 -205l-41 -774q-4 -94 -4 -127q0 -72 18 -89.5t86 -25.5l54 -6q8 -8 6 -27q-4 -18 -14 -24q-94 6 -232 6q-143 0 -235 -6 q-14 6 -17 26q0 18 15 25l63 6q63 6 79.5 32t22.5 128l19 274q2 35 -4 44.5t-39 9.5h-295q-47 0 -61.5 -9.5t-42.5 -54.5l-199 -311q-43 -68 -43 -76q0 -23 47 -31l76 -12q12 -8 10 -27q-2 -18 -14 -24q-94 6 -209 6q-117 0 -228 -6zM557 631q2 -10 43 -10h258q27 0 33 6 t8 35l33 448q4 53 -4 53t-78 -100l-285 -412q-8 -12 -8 -18v-2z" />
<glyph unicode="B" horiz-adv-x="1189" d="M39 18q0 16 10 27l41 6q76 12 106.5 51t77.5 193l248 805q27 86 27 123q0 57 -88 59l-68 2q-10 8 -8 25q0 16 8 24q176 25 344 25q227 0 346 -55q160 -76 160 -252q0 -139 -117 -230q-96 -74 -202 -82q-20 -2 -21 -8q0 -8 21 -14q92 -31 152.5 -113t60.5 -188 q0 -158 -111 -266q-158 -156 -491 -156q-57 0 -144.5 3t-128.5 3q-121 0 -211 -6q-12 8 -12 24zM397 162q0 -104 176 -105q150 0 258 88q129 104 130 295q0 123 -95 195q-84 63 -209 63q-74 0 -92.5 -10t-34.5 -59l-120 -393q-12 -43 -13 -74zM584 786q0 -26 76 -26h6 q145 0 260 67q149 89 149 261q0 94 -67.5 150t-190.5 56q-59 0 -72.5 -8t-27.5 -57l-127 -410q-6 -23 -6 -33z" />
<glyph unicode="C" horiz-adv-x="1323" d="M209 518q0 172 84 340q78 158 209 277q276 249 688 249q172 0 336 -65q-61 -152 -92 -275q-6 -12 -29 -10q-23 0 -27 13q12 55 13 96q0 178 -236 178q-291 0 -524 -229q-92 -90 -160 -244q-82 -184 -82 -369q0 -448 395 -448h2q266 0 441 286q39 16 49 -14 q-41 -125 -133 -289q-59 0 -179 -23.5t-182 -23.5q-238 0 -387 115q-186 141 -186 436z" />
<glyph unicode="D" horiz-adv-x="1513" d="M29 18q0 16 10 27l53 6q72 8 102.5 49t77.5 195l256 829q23 72 23 103q0 45 -57 51l-82 10q-10 6 -11 25q0 16 11 24q154 20 381 21q401 0 589 -182q147 -143 148 -377q0 -195 -88 -361q-86 -158 -236 -260q-270 -184 -684 -184q-23 0 -105.5 3t-150.5 3q-117 0 -225 -6 q-12 8 -12 24zM393 166q0 -100 199 -100q391 0 600 276q156 207 156 442q0 213 -80 328q-125 182 -461 182q-47 0 -63.5 -15.5t-32.5 -64.5l-305 -981q-12 -39 -13 -67z" />
<glyph unicode="E" horiz-adv-x="1159" d="M4 18q0 16 10 27l72 6q74 6 104.5 47t79.5 197l238 762q41 133 41 172q0 53 -86 69l-41 9q-10 12 -6 28q2 16 18 23q111 -6 228 -6h387q227 0 288 6q-25 -61 -84 -273q-6 -12 -26 -10q-20 0 -25 12q6 61 6 84q0 78 -78 99q-70 18 -217 18h-120q-39 0 -52.5 -11t-27.5 -58 l-131 -420q-12 -37 -13 -45q0 -14 49 -15h103q127 0 160 9q82 16 123 92l32 61q6 10 27 10q23 -2 24 -14q-35 -82 -69 -199q-31 -102 -53 -198q-8 -12 -27 -11q-18 0 -25 13v57q0 76 -47 94q-33 14 -164 15h-102q-43 0 -55.5 -8.5t-24.5 -51.5l-84 -276q-43 -141 -43 -185 q0 -25 8 -41q20 -43 228 -43q182 0 254 31q90 39 182 182q8 6 18 7q20 0 29 -19q-16 -55 -57 -137q-47 -96 -84 -133q-203 6 -469 6h-242q-109 0 -244 -6q-12 8 -12 24z" />
<glyph unicode="F" horiz-adv-x="1091" d="M14 18q0 16 11 27l63 6q74 6 104.5 47t79.5 197l240 762q41 131 41 170q0 51 -88 71l-37 9q-10 12 -6 28q2 16 18 23q104 -6 222 -6h380q229 0 289 6q-25 -61 -84 -273q-6 -12 -26 -10q-20 0 -25 12q6 61 6 84q0 78 -78 99q-70 18 -217 18h-112q-41 0 -51.5 -10 t-26.5 -59l-142 -449q-6 -23 -6 -33q0 -18 39 -18h142q123 0 159 8q80 18 121 92l35 64q8 10 29 8q23 -2 24 -12q-39 -100 -69 -195q-41 -125 -54 -205q-23 -27 -53 0l2 78q2 51 -42 70.5t-169 19.5h-151q-33 0 -43.5 -9t-22.5 -48l-90 -295q-43 -137 -43 -178q0 -59 82 -66 l80 -6q8 -10 6 -29q-4 -16 -14 -22q-178 6 -279 6q-111 0 -231 -6q-12 8 -13 24z" />
<glyph unicode="G" horiz-adv-x="1439" d="M207 500q0 162 67 319q78 178 228 309q293 256 712 256q199 0 351 -65q-57 -123 -97 -272q-6 -12 -26 -11q-20 0 -25 13q10 49 10 90q0 182 -237 182q-303 0 -537 -219q-113 -104 -189.5 -288.5t-76.5 -356.5q0 -225 127 -336q104 -90 279 -90q113 0 165 22 q72 33 103 131l53 168q31 94 31 127q0 55 -105 68l-79 10q-10 10 -11 27q2 18 15 24q135 -6 245 -6q160 0 234 6q12 -6 12 -24t-14 -27l-35 -10q-59 -16 -79.5 -45t-57.5 -150l-64 -202q-4 -13 -4 -24q0 -25 21 -38q4 -16 -9 -29q-264 -92 -430 -92q-272 0 -424.5 141.5 t-152.5 391.5z" />
<glyph unicode="H" horiz-adv-x="1558" d="M31 18q0 16 10 27l47 6q74 10 104.5 49t79.5 195l240 762q43 135 43 172q0 55 -90 69l-49 9q-25 37 12 51q123 -6 238 -6q109 0 237 6q12 -6 12 -23q0 -16 -12 -28l-47 -9q-86 -14 -113.5 -50t-76.5 -191l-84 -264q-8 -25 -9 -33q0 -17 68 -17h541q70 0 84 6.5t24 38.5 l84 269q43 135 43 174q0 53 -88 67l-51 9q-8 12 -6 28q4 16 18 23q127 -6 240 -6q102 0 237 6q12 -6 13 -25q0 -18 -13 -26l-49 -9q-86 -14 -114.5 -51t-75.5 -190l-238 -762q-43 -137 -43 -178q0 -57 82 -66l55 -6q20 -35 -8 -51q-143 6 -250 6q-111 0 -237 -6 q-12 8 -12 24t10 27l65 6q74 6 104.5 47t80.5 197l98 311q8 27 8 35q0 20 -82 21h-557q-47 0 -57 -7.5t-21 -42.5l-100 -317q-43 -135 -43 -178q0 -57 82 -66l63 -6q8 -12 7 -29q-4 -16 -15 -22q-150 6 -258 6q-121 0 -219 -6q-12 8 -12 24z" />
<glyph unicode="I" horiz-adv-x="698" d="M14 18q0 16 11 27l63 6q74 6 104.5 47t79.5 197l240 762q43 135 43 172q0 55 -90 69l-49 9q-10 12 -6 28q2 16 18 23q123 -6 238 -6q98 0 245 6q12 -6 13 -25q0 -18 -13 -26l-55 -9q-86 -12 -113.5 -49t-76.5 -192l-240 -762q-43 -137 -43 -178q0 -57 82 -66l63 -6 q8 -10 7 -29q-4 -16 -15 -22q-150 6 -258 6q-113 0 -235 -6q-12 8 -13 24z" />
<glyph unicode="J" horiz-adv-x="696" d="M-238 -352q0 27 25 57.5t55 30.5q27 0 78 -30t96 -30q66 0 134 179q57 149 135 401l247 801q41 133 41 172q0 57 -88 71l-51 9q-27 35 12 49q127 -6 240 -6q106 0 229 6q12 -6 13 -25q0 -16 -13 -24l-55 -9q-74 -10 -99.5 -49t-74.5 -194l-291 -936q-57 -184 -129 -305 q-135 -227 -375 -228q-129 0 -129 60z" />
<glyph unicode="K" horiz-adv-x="1275" d="M14 18q0 16 11 27l63 6q74 6 104.5 47t79.5 197l240 762q43 137 43 176q0 51 -78 65l-47 9q-10 12 -6 28q2 16 18 23q98 -6 222 -6q106 0 243 6q12 -6 11 -25q0 -18 -17 -26l-41 -9q-90 -18 -117.5 -53t-76.5 -188l-86 -271q-8 -25 -9 -34q0 -23 45 -23q51 0 89 21 q63 35 215 178l204 194q133 127 133 152q0 14 -49 24l-39 9q-10 10 -8 28t17 23q102 -6 225 -6q43 0 221 6q14 -8 12 -27q0 -18 -14 -24l-43 -9q-45 -8 -137 -36q-115 -49 -363 -275l-262 -239q-31 -27 -31 -39q0 -10 15 -39l225 -451q45 -90 78 -121q39 -39 108 -47l54 -6 q10 -8 8 -29q-2 -18 -14 -22q-98 6 -218 6q-115 0 -231 -6q-18 39 6 51l53 6q51 6 52 31q0 18 -31 80l-215 422q-47 92 -82 92q-49 0 -68 -58l-100 -323q-43 -137 -43 -178q0 -57 82 -66l57 -6q8 -10 6 -29q-4 -16 -14 -22q-141 6 -254 6q-111 0 -233 -6q-12 8 -13 24z" />
<glyph unicode="L" horiz-adv-x="1118" d="M27 18q0 16 10 27l49 6q74 10 104.5 49t79.5 195l240 762q43 135 43 172q0 55 -90 69l-49 9q-10 12 -6 28q2 16 18 23q240 -6 233 -6q49 0 123 2q96 4 136 4q12 -6 12 -25q0 -18 -12 -26l-64 -9q-86 -10 -113.5 -47.5t-76.5 -193.5l-226 -725q-45 -143 -45 -182 q0 -51 45 -69t166 -18q193 0 266 31q94 39 183 182q10 2 18 3q23 0 27 -15q-47 -143 -131 -270q-227 6 -473 6h-238q-119 0 -217 -6q-12 8 -12 24z" />
<glyph unicode="M" horiz-adv-x="1789" d="M-37 23q0 18 10 22l56 6q82 8 116 55q43 58 248 588l107 277q86 223 86 274q0 39 -58 47l-96 15q-10 10 -6 26q2 18 16 25q145 -6 226 -6q74 0 137 6q-14 -51 -14 -123t24 -277l78 -639h4q31 37 236 302l325 419q172 221 199 318q53 -6 127 -6q113 0 207 6q29 -18 0 -51 l-47 -9q-96 -16 -123 -47q-33 -37 -95 -254l-178 -635q-27 -88 -59 -256q-2 -47 82 -55l69 -6q10 -10 9 -29q-4 -16 -17 -22q-113 6 -262 6q-133 0 -248 -6q-10 10 -10 26q0 18 10 25l54 6q84 10 112 39q37 37 105 260l163 537q31 98 78 258l-6 2q-41 -53 -190 -250 l-312 -403q-121 -156 -174 -230q-94 -129 -153 -231q-20 -14 -39 8v9q0 87 -33 409l-70 688h-4q-23 -51 -94 -244l-153 -414q-123 -332 -123 -383q0 -37 61 -47l88 -14q18 -27 -6 -51q-86 6 -236 6q-121 0 -219 -6q-10 10 -8 29z" />
<glyph unicode="N" horiz-adv-x="1513" d="M2 16q-4 18 8 29l51 6q66 8 101 35q44 35 155 391l162 524q68 219 68 244q0 35 -53 45l-82 17q-12 10 -9 28q4 18 19 23q92 -6 209 -6h127v-29q0 -49 100 -297l207 -510q76 -184 100 -231q16 0 35 57l162 514q98 313 98 379q0 51 -51 59l-80 13q-23 35 12 51 q109 -6 232 -6q106 0 194 6q8 -6 11 -25q0 -18 -9 -26l-47 -9q-84 -14 -106 -36q-53 -53 -168 -412l-148 -459q-68 -211 -129 -422q-16 -16 -49 -12q-29 86 -190 500l-162 393q-51 135 -137 338q-12 0 -66 -180l-159 -533q-23 -74 -86 -340q-4 -14 -5 -24q0 -45 105 -60 l47 -6q8 -8 6 -27q-2 -16 -12 -24q-92 6 -234 6q-119 0 -215 -6q-10 6 -12 22z" />
<glyph unicode="O" horiz-adv-x="1495" d="M209 502q12 428 328 696q218 186 499 186q215 0 350 -139q137 -141 137 -385q0 -18 -1 -37q-8 -174 -82 -344q-76 -176 -195 -289q-236 -223 -536 -223q-246 0 -383 170q-117 143 -117 345v20zM381 424v-25q0 -149 68 -243q88 -125 274 -125q188 0 342 164 q131 141 209 350q70 186 76 368q1 16 1 32q0 171 -80 269q-87 108 -243 107q-162 0 -307 -123q-127 -109 -221 -301q-111 -227 -119 -473z" />
<glyph unicode="P" horiz-adv-x="1130" d="M16 18q0 16 11 27l63 6q74 8 104.5 48t79.5 196l265 848q16 53 16 80q0 47 -70 53l-98 8q-25 23 6 49q152 25 344 25q287 0 406 -101q112 -93 112 -250q0 -196 -174 -317q-150 -104 -379 -104q-14 6 -14 22q0 10 8 21q143 18 250 106q137 113 137 301q0 258 -276 258 q-47 0 -61.5 -11t-28.5 -60l-289 -928q-43 -137 -43 -178q0 -59 82 -66l74 -6q8 -10 6 -29q-4 -16 -15 -22q-147 6 -268 6q-113 0 -235 -6q-12 8 -13 24z" />
<glyph unicode="Q" horiz-adv-x="1495" d="M209 502q10 426 328 696q218 186 499 186q215 0 350 -139q137 -141 137 -385q0 -18 -1 -37q-8 -174 -82 -344q-76 -176 -195 -289q-162 -154 -336 -194q-20 -12 -2 -31q252 -252 439 -319q74 -27 176 -27q72 0 116 21q18 -10 11 -31q-80 -57 -230 -58q-190 0 -385 115 q-172 100 -297 258q-35 43 -94 47q-152 8 -274 119q-160 142 -160 394v18zM381 424v-25q0 -149 68 -243q88 -125 274 -125q188 0 342 164q131 141 209 350q70 186 76 368q1 16 1 32q0 170 -80 269q-87 107 -243 107q-162 0 -307 -123q-127 -109 -221 -301 q-111 -227 -119 -473z" />
<glyph unicode="R" horiz-adv-x="1175" d="M31 18q0 16 10 27l45 6q76 10 105.5 50t78.5 194l240 766q41 129 41 170q0 45 -59 51l-78 8q-23 37 10 51q133 16 348 17q481 0 481 -340q0 -143 -116 -250q-102 -90 -236 -113q-35 -6 -24 -49q43 -182 102 -354q41 -117 70 -154q41 -49 133 -59q18 -10 0 -39 q-49 -6 -129 -6t-119 22q-47 25 -72 99q-76 225 -121 397q-18 70 -35.5 86t-66.5 16q-80 0 -100.5 -10t-34.5 -55l-80 -254q-43 -135 -43 -176q0 -57 84 -68l49 -6q8 -10 6 -29q-4 -16 -14 -22q-129 6 -246 6q-121 0 -217 -6q-12 8 -12 24zM559 702q0 -18 18.5 -23t75.5 -5 q168 0 293 100q135 109 139 270v11q0 239 -268 239q-53 0 -67 -8q-21 -12 -35 -57l-144 -469q-12 -43 -12 -58z" />
<glyph unicode="S" horiz-adv-x="964" d="M74 111q-2 22 -2 44q0 102 39 193q25 20 43 -4q25 -313 303 -313q115 0 198 67q100 80 101 221q0 102 -62 185q-41 55 -143 137q-213 170 -213 356q0 170 123 278.5t325 108.5q176 0 297 -81q-16 -29 -75 -238q-29 -25 -56 2q8 41 9 76q0 178 -201 178q-133 0 -209 -78 q-68 -72 -68 -184q0 -141 199 -295q221 -172 221 -373q0 -184 -130 -304t-341 -120q-256 0 -358 144z" />
<glyph unicode="T" horiz-adv-x="1298" d="M293 1124q92 145 147 275q6 8 21 8q12 0 18 -8q-1 -3 -1 -6q0 -32 61 -39q10 -2 88 -2h757q80 0 112 8t63 39q27 10 34 -10q-29 -49 -69 -152q-37 -94 -47 -139q-6 -10 -23 -11q-16 0 -24 11q2 47 2 69q0 76 -36 98.5t-161 22.5h-125q-49 0 -61.5 -12t-32.5 -78 l-283 -903q-43 -137 -43 -178q0 -59 80 -66l76 -6q12 -10 10 -29q-2 -16 -18 -22q-166 6 -271 6q-104 0 -250 -6q-12 8 -12 24t10 27l80 6q70 6 103.5 48t81.5 196l282 903q16 51 17 68q0 22 -55 22h-5h-135q-143 0 -211 -41q-51 -31 -133 -143q-39 -16 -47 20z" />
<glyph unicode="U" horiz-adv-x="1503" d="M285 313q0 103 41 232l159 512q41 133 41 172q0 57 -88 71l-51 9q-10 10 -8 26t16 23q129 -6 240 -6q102 0 252 6q12 -6 12 -25q0 -16 -14 -24l-58 -9q-84 -12 -114 -53q-25 -33 -74 -190l-147 -473q-47 -154 -48 -262q0 -281 314 -281q340 0 506 508l94 289 q61 188 82 317q8 55 8 74q0 59 -86 71l-57 9q-10 10 -7 26q2 16 15 23q152 -6 219 -6q102 0 221 6q12 -8 12 -25q0 -16 -12 -24l-47 -9q-74 -12 -101.5 -39.5t-60.5 -111.5q-14 -37 -100 -311l-94 -301q-94 -301 -240 -428q-162 -141 -387 -142q-438 0 -438 346z" />
<glyph unicode="V" horiz-adv-x="1273" d="M268 1337q4 14 19 21q96 -6 198 -6q125 0 224 6q14 -6 14 -25q0 -16 -12 -24l-58 -9q-55 -8 -72.5 -23t-17.5 -63q0 -20 4 -63l72 -770q10 -115 20 -123q16 6 93 121l233 348q123 184 303 459q33 53 33 78q0 27 -39 32l-76 13q-8 8 -8 22q0 20 14 27q121 -6 230 -6 q102 0 182 6q29 -14 4 -49l-59 -9q-68 -10 -121 -69q-115 -129 -348 -469l-174 -254q-252 -369 -351 -535q-8 -6 -24 -6q-14 0 -27 6q-4 107 -14 222l-84 878q-12 133 -29.5 176t-68.5 51l-52 9q-10 12 -8 28z" />
<glyph unicode="W" horiz-adv-x="1798" d="M254 1331q0 20 16 27q98 -6 199 -6q106 0 211 6q10 -4 12 -25q0 -18 -10 -24l-76 -9q-61 -6 -61 -71q0 -20 4 -45l110 -774q16 -115 19 -131q8 -37 14 -41q14 8 131 170l138 188q34 47 34 94q0 10 -2 21l-69 467q-10 66 -27.5 90t-67.5 32l-47 9q-10 10 -8 26q2 18 17 23 q84 -6 200 -6q131 0 201 6q10 -4 10 -23q0 -18 -10 -26l-68 -9q-61 -8 -61 -65q0 -18 4 -43l51 -387l37 55l70 103q145 213 188 290q4 6 4 15q0 25 -47 32l-51 9q-10 8 -8 26t16 23q92 -6 182 -6q109 0 172 6q10 -6 11 -25q0 -16 -11 -24l-39 -9q-63 -14 -92.5 -36.5 t-97.5 -108.5q-94 -119 -278 -387q-27 -39 -29 -41q-6 -18 -2 -53l39 -264q25 -162 35 -172q14 6 102 141q395 600 485 756q72 125 72 139q0 16 -53 26l-41 9q-8 8 -8 22q0 20 14 27q102 -6 186 -6q109 0 172 6q10 -4 11 -25q0 -18 -11 -24l-47 -9q-66 -12 -133 -92 q-12 -16 -96 -139l-318 -467q-117 -172 -409 -629q-8 -6 -25 -6q-14 0 -24 6q-16 186 -68 506l-12 76l-275 -391q-74 -104 -123 -191q-8 -6 -24 -6q-14 0 -27 6q-8 119 -45 377l-117 807q-12 84 -22 103q-16 31 -74 40l-43 9q-10 8 -10 22z" />
<glyph unicode="X" horiz-adv-x="1179" d="M-94 23q0 16 8 22l47 6q82 10 143.5 53t171.5 166q86 88 336 361q21 23 21 47q0 11 -4 22q-61 168 -178 480q-25 63 -43 84q-25 25 -76 34l-45 9q-10 8 -6 28q4 18 16 23q139 -6 219 -6q129 0 209 6q10 -8 10 -25q0 -18 -10 -26l-55 -9q-82 -12 -82 -47q0 -16 12 -51 q47 -137 150 -416q131 133 378 424q41 47 41 66q0 18 -47 24l-59 9q-10 10 -8 26t16 25q92 -6 205 -6q92 0 186 6q12 -6 13 -25q-2 -18 -15 -26l-49 -9q-55 -10 -119 -63q-98 -84 -477 -481q-31 -33 -31 -49q0 -10 9 -35q74 -184 204 -516q39 -96 103 -103l76 -6 q10 -6 8 -25q0 -20 -13 -26q-119 6 -221 6q-125 0 -229 -6q-12 6 -14 26q0 18 10 25l45 6q82 12 82 49q0 18 -10 50q-53 150 -164 440q-195 -211 -416 -481q-14 -18 -14 -29q0 -14 28 -21l82 -14q8 -6 8 -22q0 -25 -14 -29q-106 6 -227 6t-197 -6q-14 6 -14 29z" />
<glyph unicode="Y" horiz-adv-x="1155" d="M252 20q0 16 10 25l74 6q72 6 101.5 46t82.5 198l41 121q31 92 31 143q0 45 -17 119l-102 444q-23 102 -41 131q-23 37 -76 45l-51 9q-8 10 -6 28q2 16 12 23q115 -6 217 -6q121 0 220 6q10 -8 10 -25q0 -18 -10 -26l-60 -9q-82 -12 -82 -65q0 -18 6 -47l105 -481 q8 -39 20 -39q10 0 41 36l252 304q197 238 197 258q0 25 -60 34l-51 9q-10 10 -10 26q2 16 14 25q121 -6 213 -6q84 0 185 6q10 -6 10 -25q0 -16 -10 -26l-43 -9q-80 -14 -115 -47q-94 -86 -201 -211l-233 -274q-111 -129 -138 -174q-37 -57 -73 -174l-39 -123 q-45 -141 -45 -182q0 -55 84 -62l73 -6q10 -8 9 -27q-4 -20 -15 -24q-172 6 -274 6q-104 0 -244 -6q-12 8 -12 26z" />
<glyph unicode="Z" horiz-adv-x="1230" d="M-37 27q82 61 283 270l899 936q18 20 18 33q0 22 -70 22h-6h-313q-170 0 -240.5 -35.5t-162.5 -169.5q-12 -6 -21 -6q-20 0 -26 31q72 121 122 295q4 4 13 4q8 0 12 -4q8 -35 43 -43q29 -8 154 -8h546q164 0 220 6q20 -2 16 -25q-53 -35 -438 -434l-469 -487 q-276 -287 -277 -314q0 -35 185 -35h180q297 0 383 46.5t166 181.5q8 6 24 0q12 -6 17 -17q-16 -63 -61.5 -152t-80.5 -128q-160 6 -403 6h-479q-145 0 -226 -6q-23 8 -8 33z" />
<glyph unicode="[" horiz-adv-x="655" d="M82 -307l510 1712h133q203 0 223 -6q18 -23 -6 -41l-190 -23q-45 -6 -58 -20q-43 -49 -123 -320l-266 -893q-84 -283 -72 -319q6 -14 48 -21l176 -22q8 -23 -11 -41q-27 -6 -231 -6h-133z" />
<glyph unicode="\" horiz-adv-x="696" d="M123 1384h117l391 -1417h-117z" />
<glyph unicode="]" horiz-adv-x="655" d="M-119 -301q-18 23 6 41l191 22q45 6 57 21q43 49 123 319l266 893q84 283 72 320q-6 14 -47 20l-176 23q-8 23 10 41q27 6 231 6h134l-510 -1712h-134q-203 0 -223 6z" />
<glyph unicode="^" horiz-adv-x="1146" d="M240 500l362 782h98l361 -782h-127l-283 637l-282 -637h-129z" />
<glyph unicode="_" d="M0 -154h1024v-102h-1024v102z" />
<glyph unicode="`" horiz-adv-x="737" d="M383 1237q0 27 37 53q29 20 51 21q35 0 70 -66l174 -321q-2 -25 -33 -25l-264 277q-35 37 -35 61z" />
<glyph unicode="a" horiz-adv-x="909" d="M41 86q0 49 39 147q51 127 141 250q137 190 271 265q106 59 184 59q25 0 50.5 -12t39.5 -43l57 131q12 6 29 6q55 0 72 -37q-174 -428 -275 -715q-16 -47 15 -47q55 0 210 137q29 0 29 -26q-70 -92 -162 -158q-102 -72 -182 -72q-59 0 -59 56q0 25 20 79l68 185l-6 2 q-106 -133 -241.5 -227.5t-209.5 -94.5q-41 0 -65.5 35t-24.5 80zM211 119q0 -39 31 -39q55 0 198 133q207 190 275 442q-27 74 -103 74q-55 0 -145 -80q-96 -86 -176 -253t-80 -277z" />
<glyph unicode="b" horiz-adv-x="954" d="M141 160q0 127 105 403l237 631q37 100 37 133q0 25 -16 37l-47 33q-2 4 -2 10q0 10 8 18q108 39 234 39h12l8 -12q-37 -96 -105 -272l-266 -701h4q236 356 434 357q176 0 177 -185q0 -225 -265 -481q-205 -199 -391 -199q-164 0 -164 189zM279 141q0 -106 71 -106 q74 0 197 137q100 113 186 270q92 166 92 252q0 72 -71 72q-94 0 -283 -215q-92 -104 -145 -225q-47 -109 -47 -185z" />
<glyph unicode="c" horiz-adv-x="692" d="M92 188q0 113 64 254q72 162 199.5 278t262.5 116q74 0 113 -35t39 -86q0 -41 -29.5 -69t-70.5 -28q-37 0 -41 37q-8 66 -13 76q-16 37 -59 37q-80 0 -172 -137q-129 -190 -137 -424v-15q0 -118 88 -118q86 0 221 125q14 2 22.5 -8.5t4.5 -26.5q-147 -193 -338 -193 q-154 0 -154 217z" />
<glyph unicode="d" horiz-adv-x="970" d="M57 119q0 115 76 268q80 162 197 266q203 182 366 183q72 -1 105 -64l147 422q35 102 35 133q0 25 -16 37l-47 33q-2 4 -2 10q0 10 8 18q110 39 229 39h12l9 -12q-18 -57 -129 -362q-186 -512 -318 -949q-14 -47 12 -47q25 0 102 62.5t124 122.5q29 0 30 -27 q-43 -90 -155 -182q-117 -98 -193 -99q-65 0 -65 64q0 43 26 119l72 202l-8 2q-141 -188 -225 -264q-135 -123 -269 -123q-57 0 -90 42t-33 106zM180 92q0 -43 39 -43q98 0 277 182q195 199 249 396q8 33 9 61q-1 86 -62 86q-59 0 -155 -88q-63 -59 -155.5 -182t-137.5 -217 q-63 -129 -64 -195z" />
<glyph unicode="e" horiz-adv-x="708" d="M90 186q0 117 70 260q84 174 235 291q127 99 246 99q57 0 96 -41q33 -37 33 -82q0 -201 -498 -340q-28 -68 -28 -176v-7q0 -51 27.5 -83.5t70.5 -32.5q78 0 215 119q35 0 27 -35q-152 -186 -328 -187q-84 0 -129 70q-37 59 -37 145zM293 434q168 51 274 152q80 76 80 139 q0 47 -47 47q-66 0 -158 -100.5t-149 -237.5z" />
<glyph unicode="f" horiz-adv-x="534" d="M-297 -446q0 45 39 73q14 12 25 13q16 0 34 -31q47 -76 123 -76q78 0 129 170q55 180 137 516q88 356 134 512h-170q-12 10 -13 29q0 29 27 47h176q96 332 227 487q143 170 344 170q68 0 118 -37.5t50 -97.5q0 -45 -30.5 -86t-57.5 -41q-25 0 -28 33q-8 160 -125 160 q-82 0 -160 -111q-61 -88 -113 -225q-4 -14 -80 -252h256q10 -15 10 -29q0 -25 -30 -47h-254l-47 -162q-61 -227 -193 -680q-78 -258 -161 -335q-111 -104 -234 -105q-63 0 -102 39q-31 33 -31 66z" />
<glyph unicode="g" horiz-adv-x="782" d="M-109 -356q0 102 134 190q90 59 217 98q-66 43 -66 95q0 39 92 157q-149 39 -149 183q0 90 45 185t121 161q141 123 303 123q20 0 64 -18.5t50 -18.5q33 0 96.5 14t94.5 14q43 0 43 -51q0 -63 -45 -63q-20 0 -68 10q-37 12 -75 12q-23 0 -19 -12q14 -53 14 -78 q0 -119 -77 -233q-70 -106 -183 -176q-39 -25 -145 -54q-45 -25 -45 -71q0 -51 67 -97q43 -29 199 -122t156 -199q0 -94 -125 -166q-141 -78 -375 -78q-127 0 -217 45q-106 55 -107 150zM33 -326q0 -70 86 -114q79 -43 190 -43q90 0 170 32q100 41 101 107q0 66 -88 125 q-143 96 -191 102q-6 1 -13 1q-71 0 -177 -77q-78 -57 -78 -133zM242 315q0 -71 59 -71h2q68 0 135 80q80 94 137 217q49 111 50 166q-1 69 -62 69q-63 0 -137 -84q-68 -76 -123 -184q-61 -119 -61 -193z" />
<glyph unicode="h" horiz-adv-x="972" d="M66 8q0 9 2 17l389 1151q43 125 43 149q0 25 -21 37l-43 29q-6 16 6 26q88 39 240 47l8 -12q-104 -291 -147 -418l-211 -612l4 -4q152 213 323 338q111 80 195 80q123 0 123 -138q0 -195 -160 -479q-45 -80 -133 -168q-80 -80 -149 -80q-76 0 -76 60q0 25 17.5 45 t37.5 20q12 0 40 -19.5t42 -19.5q39 0 82 103q49 117 94 272q53 178 53 256q0 61 -43 62q-39 0 -110 -56q-129 -100 -260 -272q-94 -125 -248 -426q-12 -25 -37 -25q-61 0 -61 37z" />
<glyph unicode="i" horiz-adv-x="569" d="M106 45l261 621q16 39 -5 39q-37 0 -169 -109q-35 4 -27 35q78 90 186 151q94 53 152 54q12 0 33 -21q7 -7 7 -21q0 -24 -20 -69l-243 -582q-18 -45 6 -45q27 0 94.5 47.5t118.5 104.5q31 -2 30 -35q-31 -57 -149 -143q-139 -100 -234 -101q-25 0 -38 25.5t-3 48.5z M446 1198q0 43 25 82q33 47 86 47q72 0 72 -78q0 -49 -32 -89t-77 -40q-74 0 -74 78z" />
<glyph unicode="j" horiz-adv-x="530" d="M-287 -440q0 29 19.5 54.5t46.5 25.5q12 0 24 -21q51 -88 117 -88q59 0 103 102q70 162 221 662q55 174 114 387q2 27 -16 27q-55 0 -203 -158q-29 4 -33 35q41 70 146 153q123 96 211 97q20 0 35.5 -18.5t15.5 -41.5q0 -45 -108 -395q-61 -211 -187 -574 q-146 -358 -369 -358q-68 0 -106 39q-31 31 -31 72zM428 1198q0 43 25 82q33 47 86 47q71 0 71 -76q0 -51 -31.5 -91t-76.5 -40q-74 0 -74 78z" />
<glyph unicode="k" horiz-adv-x="917" d="M82 25l375 1130q39 115 39 148q0 27 -25 38l-37 19q-20 14 -4 31q96 45 250 73l12 -10q-20 -72 -100 -301l-211 -606h4q94 127 209 211q106 78 221 78q147 0 148 -113q0 -72 -84 -150q-166 -152 -328 -180q-14 -8 -6 -39q31 -109 76 -192q37 -68 65 -68q43 0 123 96 q27 0 27 -24q-47 -100 -119 -156q-51 -39 -88 -39q-49 0 -94 82q-55 100 -95 219q-22 70 -62 70q-6 0 -13 -2q-47 -10 -76 -82l-107 -260q-10 -27 -35 -27q-67 0 -67 38q0 8 2 16zM348 395q6 -8 25 -6q121 14 301 133q131 86 131 172q0 53 -66 54q-76 0 -198 -105 q-143 -123 -189 -223q-6 -16 -4 -25z" />
<glyph unicode="l" horiz-adv-x="503" d="M96 33q0 41 45 174l326 969q29 86 29 127q0 37 -31 51l-37 16q-8 6 -8 16q0 12 8 17q129 51 258 61l10 -12q-41 -110 -121 -352l-323 -967q-10 -29 -10 -45q0 -22 17 -22h1q53 0 236 206q33 4 32 -28q-53 -102 -133 -174q-106 -98 -219 -99q-80 0 -80 62z" />
<glyph unicode="m" horiz-adv-x="1492" d="M123 8q0 6 4 17q8 25 117 317q111 307 116 328q6 20 6 33q0 24 -20 24q-90 0 -180 -113q-33 0 -29 31q98 190 316 191q55 0 55 -52q0 -16 -6 -32l-142 -371l7 -4q121 199 245 319q139 140 250 140q100 0 101 -101q0 -66 -41 -166l-78 -188l6 -4q289 459 487 459 q115 0 115 -111q0 -55 -33 -143q-92 -219 -190 -453q-14 -39 4 -39q27 0 88 43t104 96q33 4 33 -28q-57 -96 -161.5 -163t-190.5 -67q-14 0 -31.5 16.5t-17.5 35.5q0 18 49 135q102 244 166 403q43 111 43 150q0 49 -33 49q-74 0 -268 -246q-109 -137 -322 -518 q-14 -25 -37 -25q-63 0 -63 37q0 6 4 17l203 536q47 125 47 158q0 41 -31 41q-86 0 -285 -246q-96 -119 -307 -518q-12 -25 -37 -25q-63 0 -63 37z" />
<glyph unicode="n" horiz-adv-x="1026" d="M119 8q0 6 4 17q113 309 237 645q18 47 -6 47q-70 0 -186 -103q-29 0 -25 31q59 82 144.5 136.5t161.5 54.5q59 0 59 -54q0 -14 -6 -30l-140 -359l7 -4q123 186 247 307q147 139 254 140q115 0 115 -111q0 -51 -33 -143q-92 -219 -190 -453q-14 -39 4 -39q27 0 88 43 t104 96q33 4 33 -28q-57 -96 -161.5 -163t-190.5 -67q-14 0 -31.5 16.5t-17.5 35.5q0 18 49 135q59 150 166 403q43 94 43 150q0 49 -33 49q-37 0 -118 -69.5t-165 -174.5q-102 -129 -313 -520q-12 -25 -37 -25q-63 0 -63 37z" />
<glyph unicode="o" horiz-adv-x="831" d="M96 244q6 104 64 227q61 137 159 231q140 134 283 134q106 0 160 -72q49 -65 49 -164v-22q-6 -100 -53 -218q-59 -141 -164 -247q-137 -141 -293 -142q-101 0 -157 72q-49 63 -49 170q0 15 1 31zM233 164q-1 -10 -1 -20q0 -111 85 -111q82 0 162 106q66 88 127.5 252 t63.5 248v12q0 123 -82 123q-76 0 -150 -98q-84 -113 -145 -275q-53 -147 -60 -237z" />
<glyph unicode="p" horiz-adv-x="917" d="M-217 -528q0 12 10 22l45 8q78 14 109 52q16 20 45 100l381 1069q-88 -25 -207 -84q-33 4 -21 39q100 72 254 113l62 165q12 10 35 11q72 0 82 -39l-43 -125q6 0 30.5 2t46.5 2q100 0 174 -43q104 -61 105 -191q0 -258 -270 -485q-82 -68 -193 -98q-63 -18 -100 -19 q-20 0 -64 13q-23 -6 -33 -37l-84 -242q-38 -106 -38 -139q0 -39 55 -47l84 -13q23 -31 -8 -45q-35 0 -447 -12q-10 8 -10 23zM305 143q-12 -33 2 -55q29 -47 76 -47q35 0 92 31q80 47 137 135q121 186 121 385q0 74 -46 113.5t-116 39.5q-24 0 -53 -4z" />
<glyph unicode="q" horiz-adv-x="952" d="M176 451q131 221 313 319q121 66 234 66q88 0 111 -113q66 106 110 166q43 10 47 -25q-25 -84 -125 -403l-245 -787q-23 -72 -23 -102q0 -41 45 -45l68 -6q8 -10 6 -25q-2 -14 -15 -20q-147 -8 -442 -60q-12 6 -14 23q-4 14 6 24l94 29q61 18 86 53q18 25 45 107l236 731 h-4q-287 -412 -510 -412q-61 0 -97 49q-28 40 -28 101q0 158 102 330zM221 121q0 -57 45 -58q55 0 172 99q172 145 258 295q57 100 58 200q0 37 -20.5 77t-53.5 40q-70 0 -160 -82q-102 -94 -200.5 -278.5t-98.5 -292.5z" />
<glyph unicode="r" horiz-adv-x="698" d="M127 12q0 10 98 305q104 317 115 353q12 43 -16 43q-66 0 -146 -107q-16 -4 -25.5 5.5t-7.5 27.5q117 197 242 197q70 0 70 -82q0 -49 -23 -113l-88 -258h10q121 223 215 346q82 106 150 107q82 0 82 -101q0 -68 -43 -123q-18 -23 -37 -22q-23 0 -29 33q-14 79 -42 79h-1 q-25 0 -71 -61q-123 -158 -349 -645q-12 -25 -34 -25q-70 0 -70 41z" />
<glyph unicode="s" horiz-adv-x="536" d="M8 80q0 35 31 67q12 10 29 11q14 0 26 -11q71 -81 140 -81h2q39 0 68.5 34.5t29.5 81.5q0 59 -76 180q-72 115 -72 191q0 109 123 215q78 68 152 68q53 0 88 -37t35 -80q0 -45 -37 -64q-23 -6 -39 17q-65 65 -123 65h-2q-41 0 -62.5 -26.5t-21.5 -55.5q0 -70 70 -186 q77 -129 77 -216v-11q-4 -109 -106 -197q-84 -74 -207 -74q-55 0 -90 35t-35 74z" />
<glyph unicode="t" horiz-adv-x="581" d="M111 27q0 33 28 116l193 566h-160q-2 9 -2 17q0 30 25 40l163 29l115 202q12 6 29 7q35 0 49 -19l-59 -201h223q6 -8 6 -22q0 -37 -31 -53h-223l-184 -539q-6 -18 -6 -30q0 -21 20 -21q23 0 102.5 63.5t130.5 120.5q35 0 29 -37q-82 -121 -207 -211q-117 -84 -186 -84 q-20 0 -37.5 18.5t-17.5 37.5z" />
<glyph unicode="u" horiz-adv-x="1015" d="M119 592q43 68 165 156t189 88q20 0 42 -15.5t23 -34.5q0 -6 -3 -12l-230 -598q-10 -25 -10 -43q0 -27 24 -27q47 0 220 170q119 117 225 295q68 127 135 252q31 6 62.5 -6t37.5 -31q-76 -197 -239 -634q-18 -51 8 -52q27 0 94 56q61 51 107 104q35 8 37 -29 q-43 -80 -158 -165q-123 -94 -201 -95q-20 0 -36.5 17.5t-16.5 38.5q0 8 2 16l139 375l-4 2q-131 -164 -270 -295q-166 -154 -242 -154q-78 0 -78 86q0 39 19 88l188 498q12 30 12 44.5t-12 14.5q-59 0 -194 -141q-14 -2 -25.5 7.5t-9.5 23.5z" />
<glyph unicode="v" horiz-adv-x="872" d="M125 608q59 84 141 148q100 80 183 80q29 0 51 -26t22 -62q0 -23 -10 -48l-176 -456q-20 -53 -21 -97q0 -73 58 -73h2q90 0 223 151q84 96 133 211q43 102 43 180q0 84 -18 146q6 74 75 74q80 0 80 -127q0 -115 -100 -297.5t-229 -290.5q-180 -150 -320 -150 q-39 0 -66.5 38t-27.5 85q0 64 51 197l141 366q9 23 9 37q0 23 -23 23q-59 0 -190 -144q-35 0 -31 35z" />
<glyph unicode="w" horiz-adv-x="1345" d="M127 608q59 86 137 148q100 80 187 80q29 0 50 -25t21 -63q0 -23 -10 -48l-162 -428q-39 -102 -39 -145q0 -49 45 -49q61 0 168 115q80 86 154 196q94 143 133 328q10 49 39 79.5t57 30.5q61 0 62 -57q0 -37 -72 -184q-111 -229 -111 -418q0 -90 76 -90q47 0 120 54 t134 142q127 182 127 342q0 84 -18 146q6 74 75 74q80 0 80 -127q0 -217 -223 -488q-102 -123 -221 -192q-98 -57 -170 -58q-35 0 -75 36t-40 81q0 61 35 174q4 16 2 21q-2 6 -10 0t-21 -23q-82 -113 -184 -192q-119 -96 -205 -97q-41 0 -72.5 36t-31.5 75q0 57 35 149 l153 410q14 39 15 55q0 20 -21 21q-70 0 -188 -144q-35 0 -31 35z" />
<glyph unicode="x" horiz-adv-x="860" d="M41 168q27 23 45 22q14 0 20 -26q12 -57 37 -58q23 0 82 64q35 37 176 205l-86 221q-37 96 -57 96q-23 0 -46.5 -34.5t-45.5 -69.5q-16 -8 -27 0q-12 8 -10 28q27 82 86 151t98 69q51 0 90 -107l89 -240q18 23 139 168q152 178 231 179q82 0 82 -97q0 -49 -27.5 -83.5 t-54.5 -34.5q-18 0 -28 34q-14 51 -43 52q-45 0 -277 -281l76 -195q45 -116 74 -116t96 121q10 12 28 8q16 -6 15 -21q-23 -104 -70 -176q-53 -76 -108 -76q-63 0 -121 144l-78 194l-150 -176q-137 -162 -221 -162q-73 0 -73 72q0 74 59 125z" />
<glyph unicode="y" horiz-adv-x="749" d="M-205 -457q0 39 23.5 63.5t58.5 24.5q33 0 56.5 -34.5t56.5 -34.5q45 0 112 57q43 37 95 119q59 94 86 188q41 149 41 418v49q-4 307 -78 307q-41 0 -119 -155q-31 -8 -39 26q35 111 98.5 188t135.5 77q117 0 124 -349q1 -34 1 -67q0 -201 -31 -383h8q96 143 172 352 q66 180 76 379q4 63 49 63q29 0 57 -18q19 -13 19 -46q0 -62 -49 -210q-70 -209 -189 -410q-111 -186 -145 -239q-84 -129 -193 -252q-180 -207 -319 -207q-47 0 -77 27.5t-30 66.5z" />
<glyph unicode="z" horiz-adv-x="831" d="M4 29q0 39 119 145q223 203 498 463q12 12 12 20q0 12 -37 25q-127 41 -234 41q-88 0 -88 -74q0 -45 33 -78q0 -57 -71 -57q-76 0 -76 76q0 63 91 146t214 83q61 0 131 -20q119 -35 149 -35q61 0 121 72q23 2 39.5 -10.5t12.5 -30.5q-139 -125 -281 -252 q-229 -207 -387 -369l2 -6h8q84 0 248 -76q84 -39 129 -39q35 0 64.5 26.5t29.5 67.5q0 31 -20 99q-4 12 -4 22q0 39 45 39q39 0 63.5 -32.5t24.5 -71.5q0 -92 -107 -178q-90 -72 -164 -72q-47 0 -168 51q-55 25 -110 49.5t-88 24.5q-88 0 -119 -107h-11q-69 0 -69 58z" />
<glyph unicode="{" horiz-adv-x="655" d="M176 -162q0 90 93 303t93 299q0 76 -139 86q-10 31 10 45q123 8 179 62q31 31 51 98q25 76 51 217q29 154 47 219q74 254 361 254q4 -25 -13 -37q-193 -33 -231 -200q-25 -107 -43 -209q-12 -70 -43 -211q-51 -172 -215 -211l-2 -8q104 -27 104 -142q0 -41 -98 -280 q-92 -225 -92 -270q0 -115 125 -142q4 -27 -11 -35q-227 0 -227 162z" />
<glyph unicode="|" horiz-adv-x="532" d="M287 -512v2048h121v-2048h-121z" />
<glyph unicode="}" horiz-adv-x="655" d="M-80 -324q-4 25 12 37q193 33 232 201q25 107 43 209q12 70 43 211q51 172 215 211l2 8q-104 27 -105 141q0 41 99 281q92 225 92 270q0 115 -125 141q-4 27 10 35q227 0 228 -161q0 -90 -93.5 -303.5t-93.5 -299.5q0 -76 139 -86q10 -31 -10 -45q-123 -8 -178 -61 q-31 -31 -51 -98q-25 -76 -51 -217q-29 -154 -47 -220q-76 -266 -361 -254z" />
<glyph unicode="~" horiz-adv-x="1146" d="M238 264q47 117 89.5 162t118.5 45h254q76 0 113 29q29 23 70 104q55 20 67 -29q-20 -53 -35 -79q-31 -61 -59 -88q-41 -37 -115 -37h-254q-76 0 -112 -29q-29 -25 -70 -106q-55 -20 -67 28z" />
<glyph unicode="&#xa1;" horiz-adv-x="421" d="M-119 -500q0 12 39 107q16 43 33 86l254 665q6 12 24 13q20 0 29 -13l-141 -661q-31 -145 -41 -178q-12 -41 -34 -52.5t-75 -11.5q-88 0 -88 45zM219 680q0 53 36 90t81 37q90 0 90 -92q0 -59 -35 -95t-82 -36q-90 0 -90 96z" />
<glyph unicode="&#xa2;" d="M246 563q0 213 166 361q156 141 374 153l52 176q16 8 41 9q25 0 39 -9l-52 -174q129 -8 203 -53q25 -27 10 -78q-20 -70 -55 -69q-10 0 -14 6q-66 98 -164 123l-209 -711q18 -6 45 -6q61 0 137 33.5t117 76.5q33 0 25 -32q-47 -63 -136 -105q-100 -47 -213 -47l-61 -209 q-12 -16 -41 -16q-27 2 -39 16l64 215q-143 23 -222 121q-68 90 -67 219zM403 600q0 -232 160 -285l205 699q-154 -8 -259.5 -133t-105.5 -281z" />
<glyph unicode="&#xa3;" d="M-8 20q0 43 63.5 84t157.5 54q102 12 166 143q53 109 70 277h-232q-10 16 -6 36q6 20 25 29h221q23 193 51 297q41 143 123 236q119 135 276 135q195 0 195 -127q0 -27 -22.5 -57.5t-37.5 -30.5q-16 0 -32 28q-61 115 -168 115q-113 0 -162 -180q-23 -84 -57 -416h292 q12 -14 9 -39q-5 -22 -21 -26h-291q-55 -299 -276 -418v-4q37 0 83 -6.5t169 -63.5q113 -51 174 -51q94 0 94 102q0 23 -4 47q-10 63 47 64q29 0 52.5 -25.5t23.5 -66.5q0 -84 -97.5 -146.5t-224.5 -62.5q-96 0 -209 53q-66 35 -208 96q-29 -4 -50.5 -24.5t-21.5 -42 t-37 -40t-64 -18.5q-72 0 -71 49z" />
<glyph unicode="&#xa4;" d="M186 641q0 156 95 270l-93 93q10 72 101 98l84 -105q113 82 256 82t256 -82l84 105q90 -27 100 -98l-92 -93q94 -115 94 -270q0 -156 -94 -270l92 -92q-10 -72 -100 -99l-84 105q-113 -82 -256 -82t-256 82l-84 -105q-90 27 -101 99l93 92q-94 115 -95 270zM303 641 q0 -145 97.5 -244.5t228.5 -99.5q129 0 227 100.5t98 243.5q0 141 -98 242.5t-227 101.5q-131 0 -228.5 -101.5t-97.5 -242.5z" />
<glyph unicode="&#xa5;" d="M170 451q0 35 23 47h311q20 68 10 118l-10 48h-262q-6 14 -2 34q4 23 18 31h231l-71 332q-20 98 -40 130t-67 46l-43 12q-23 31 8 43q104 -6 211 -6q125 0 199 6q12 -8 12 -20q0 -14 -10 -23l-88 -18q-57 -12 -57 -51q0 -16 8 -56l63 -331q23 -115 33 -125q16 12 80 92 l250 315q74 92 74 123q0 25 -37 35l-62 16q-18 27 9 43q117 -6 200 -6q70 0 162 6q14 -10 14 -24q0 -10 -8 -19l-57 -14q-57 -14 -121 -76q-20 -20 -100 -115l-269 -315h262q8 -14 5 -35q-4 -23 -21 -30h-299q-55 -70 -84 -166h316q4 -8 4 -21q0 -33 -23 -45h-319l-60 -201 q-25 -86 -24 -116q0 -55 90 -68l59 -8q6 -8 6 -19q0 -16 -12 -26q-125 6 -242 6q-133 0 -241 -6q-27 27 4 45l53 8q84 12 113.5 44t62.5 147l55 194h-313q-4 6 -4 19z" />
<glyph unicode="&#xa6;" horiz-adv-x="532" d="M287 -358v716h121v-716h-121zM287 666v716h121v-716h-121z" />
<glyph unicode="&#xa7;" horiz-adv-x="942" d="M14 -113q0 37 35 37q20 0 39 -14q98 -78 193 -78q78 0 131 44t53 128q0 131 -107.5 386t-107.5 370q0 133 110 289q102 145 256 251q183 127 279 127q57 0 101 -38.5t44 -94.5q0 -80 -55 -80q-8 0 -27 27q-12 20 -24 39q-43 51 -109 51q-84 0 -135 -48t-51 -126 q0 -129 94 -360q80 -197 96 -242q33 -100 33 -178q0 -115 -69 -219q-53 -80 -179 -195q-256 -236 -421 -235q-74 0 -126.5 45t-52.5 114zM373 850q0 -147 94 -371q106 -250 108 -327q2 -74 -6 -142l4 -4q158 141 158 322q0 116 -80 313q-117 287 -121 340q-8 104 15 178 l-4 4l-2 -6h4v10q-59 -53 -107 -131q-63 -102 -63 -186z" />
<glyph unicode="&#xa8;" horiz-adv-x="737" d="M338 1071q0 49 31.5 82t72.5 33q78 0 78 -82q0 -53 -30.5 -84t-71.5 -31q-80 0 -80 82zM694 1071q0 49 32 82t73 33q78 0 78 -82q0 -53 -31 -84t-72 -31q-80 0 -80 82z" />
<glyph unicode="&#xa9;" horiz-adv-x="1689" d="M248 676q0 297 205.5 502.5t511.5 205.5q305 0 510.5 -205.5t205.5 -502.5t-205.5 -503t-510.5 -206t-511 206t-206 503zM365 678q0 -266 173 -448.5t427 -182.5t427 182.5t173 448.5q0 264 -173 445.5t-427 181.5t-427 -181.5t-173 -445.5zM575 672q0 182 131.5 296.5 t327.5 114.5q68 0 156 -16q45 -8 92 -16q8 -57 25 -191q-6 -12 -25 -12q-12 0 -18 6q-55 174 -242 174q-139 0 -216 -97t-77 -247q0 -162 84 -260t221 -98q166 0 252 194q8 6 19 6q16 0 22 -12q-8 -115 -55 -197q-150 -47 -250 -47q-213 0 -336 127q-111 111 -111 275z" />
<glyph unicode="&#xaa;" horiz-adv-x="745" d="M141 573q0 35 31 105q39 90 109 178q115 147 235 201q61 29 127 28q47 1 70 -38l45 94q20 8 49 0t39 -23q-133 -289 -213 -508q-12 -35 12 -35q47 0 160 99q25 0 24 -25q-49 -61 -122 -106q-82 -51 -154 -51q-45 0 -45 38q0 14 16 58l43 114l-4 5q-80 -86 -180 -150.5 t-160 -64.5q-82 0 -82 81zM287 600q0 -27 22 -27q35 0 129 80q70 61 135 150q74 98 97 176q-21 51 -74 51q-47 0 -113 -55q-76 -63 -136 -181t-60 -194z" />
<glyph unicode="&#xab;" horiz-adv-x="819" d="M162 389q-20 31 12 64q53 53 157.5 155.5t153.5 151.5q25 4 29 -27l-205 -287q-16 -24 -10 -49l82 -297q-10 -31 -39 -20q-106 190 -180 309zM449 389q-20 31 12 64q53 53 157.5 155.5t153.5 151.5q25 4 29 -27l-205 -287q-16 -24 -10 -49l82 -297q-10 -31 -39 -20 q-106 190 -180 309z" />
<glyph unicode="&#xac;" horiz-adv-x="1146" d="M182 524v101h889v-523h-121v422h-768z" />
<glyph unicode="&#xad;" horiz-adv-x="655" d="M111 395q-1 51 26 76l498 45q12 -14 12 -43q0 -49 -29 -74l-497 -45q-10 14 -10 41z" />
<glyph unicode="&#xae;" horiz-adv-x="1689" d="M248 676q0 297 205.5 502.5t511.5 205.5q305 0 510.5 -205.5t205.5 -502.5t-205.5 -503t-510.5 -206t-511 206t-206 503zM365 678q0 -266 173 -448.5t427 -182.5t427 182.5t173 448.5q0 264 -173 445.5t-427 181.5t-427 -181.5t-173 -445.5zM627 297q-2 14 6 20l31 5 q51 6 63 36q8 23 8 125v387q0 100 -10 125t-61 31l-31 4q-23 23 4 37q147 8 309 8q281 0 281 -207q0 -135 -150 -194q-4 -16 8 -31q145 -242 224 -313q31 -29 71 -29q4 -4 4 -12t-4 -13q-31 -6 -61 -6q-80 0 -128 32t-110 118q-37 63 -112 182q-16 23 -64 23q-51 0 -51 -27 v-115q0 -100 12.5 -128.5t57.5 -32.5l41 -5q10 -6 8 -20q0 -14 -10 -18q-106 4 -162 4q-61 0 -164 -4q-8 4 -10 18zM854 723q0 -31 12.5 -37t67.5 -6q164 0 164 174q0 66 -43 115q-49 51 -127 51q-51 0 -62.5 -8t-11.5 -39v-250z" />
<glyph unicode="&#xaf;" horiz-adv-x="737" d="M354 1102q0 31 15 51h491q16 -20 17 -51q-1 -33 -17 -53h-491q-14 20 -15 53z" />
<glyph unicode="&#xb0;" horiz-adv-x="819" d="M342 1047q0 117 79.5 190.5t194.5 73.5t195 -74t80 -190q0 -121 -79 -193t-196 -72t-192 70q-82 74 -82 195zM457 1047q0 -86 45 -139.5t114 -53.5q70 0 115 53.5t45 139.5t-45 139t-115 53t-114.5 -53t-44.5 -139z" />
<glyph unicode="&#xb1;" horiz-adv-x="1146" d="M242 0v100h788v-100h-788zM242 489v101h336v303h120v-303h332v-101h-332v-317h-120v317h-336z" />
<glyph unicode="&#xb2;" horiz-adv-x="737" d="M109 532q104 63 255.5 185.5t196.5 169.5q111 117 111 219q0 55 -37 91t-96 36q-96 0 -193 -119q-29 -12 -33 21q43 80 120 128t163 48q100 0 161.5 -52.5t61.5 -140.5q0 -82 -69 -162q-49 -57 -166 -143l-103 -76q-135 -100 -135 -123q0 -10 37 -10h127q78 0 113 12 q43 14 73 60q6 4 19 4q20 0 26 -10q-35 -55 -88 -168q-66 4 -209 4h-176q-104 0 -153 -4q-18 12 -6 30z" />
<glyph unicode="&#xb3;" horiz-adv-x="737" d="M104 510q0 25 18.5 43t45.5 18q41 0 70 -55q18 -37 61 -37q125 0 217 90t92 211q0 63 -40 102.5t-103 39.5q-70 0 -146 -60q-41 18 -16 64q188 74 199 78q150 74 149 155q0 84 -98 84q-109 0 -199 -121q-31 -4 -30 27q43 70 114 115q80 47 166 47q80 0 130 -40t50 -102 q0 -104 -198 -172q-12 -4 -6 -10q4 -6 18 -10q162 -39 162 -180q0 -166 -174 -275q-154 -96 -334 -96q-147 0 -148 84z" />
<glyph unicode="&#xb4;" horiz-adv-x="737" d="M471 924l174 321q35 66 70 66q23 0 51 -21q37 -27 37 -53q0 -24 -35 -61l-264 -277q-29 0 -33 25z" />
<glyph unicode="&#xb5;" horiz-adv-x="1015" d="M-82 -518q0 14 6 31l424 1130q23 59 0 59q-59 0 -194 -141q-14 -2 -25.5 7.5t-9.5 23.5q43 68 165 156t189 88q20 0 42 -15.5t22 -34.5q0 -6 -2 -12l-230 -598q-10 -25 -10 -43q0 -27 24 -27q47 0 218 170q117 117 225 295q16 27 137 252q31 6 62.5 -6t37.5 -31 q-76 -197 -239 -634q-18 -51 8 -52q27 0 94 56q61 51 107 104q35 8 37 -29q-43 -80 -158 -165q-123 -94 -201 -95q-20 0 -36.5 17.5t-16.5 40.5q0 6 2 14l129 350l-4 2q-121 -147 -258 -274q-160 -150 -217 -150q-20 0 -33 11q-20 2 -37 -45l-31 -87q-29 -80 -28 -186 q0 -90 -13.5 -128t-55.5 -62.5t-93 -24.5q-37 0 -37 33z" />
<glyph unicode="&#xb6;" d="M233 -59q0 84 76 110q33 0 60.5 -19.5t25.5 -41.5q-33 -29 -33 -66q0 -57 60 -57q100 0 178 256l100 334q8 25 9 41q0 33 -37 34q-121 10 -219 89q-125 98 -125 253q0 223 184 350.5t494 127.5q203 0 249 -11q10 -6 9 -22q-2 -18 -13 -23l-86 -14q-84 -14 -104 -30.5 t-43 -94.5l-285 -958q-53 -178 -104 -258q-88 -135 -226 -136q-76 0 -123 37t-47 99z" />
<glyph unicode="&#xb7;" horiz-adv-x="512" d="M195 408q0 53 35.5 90t80.5 37q90 0 90 -93q0 -59 -34.5 -95t-81.5 -36q-90 0 -90 97z" />
<glyph unicode="&#xb8;" horiz-adv-x="737" d="M113 -358q0 49 51 49q20 0 50 -30t42 -30q57 0 57 64q0 78 -108 127v8l127 170h67l-61 -80q-16 -23 10 -45q76 -61 76 -133q0 -70 -65.5 -118t-143.5 -48q-102 0 -102 66z" />
<glyph unicode="&#xb9;" horiz-adv-x="737" d="M223 522q0 14 6 19l37 4q61 6 82 33q18 20 43 102l119 399q18 63 16 78q2 20 -43 29l-61 10q-16 20 4 35q162 25 258 72q18 4 23 -13q-14 -39 -50 -145l-137 -467q-20 -66 -20 -90q0 -37 61 -43l39 -4q6 -4 6 -17q0 -16 -12 -22q-106 4 -195 4q-96 0 -170 -4q-6 4 -6 20z " />
<glyph unicode="&#xba;" horiz-adv-x="671" d="M180 684q4 78 49 169t115 153q113 100 238 100q184 0 174 -184q-10 -178 -168 -330q-104 -100 -234 -100q-80 0 -130 51t-44 141zM297 629q-2 -84 70 -84q70 0 130 81t99 183q37 92 39 152q4 92 -70 92q-59 0 -125 -80q-55 -68 -98 -176.5t-45 -167.5z" />
<glyph unicode="&#xbb;" horiz-adv-x="819" d="M104 106l205 287q16 25 10 49l-81 297q10 31 38 21q106 -190 181 -309q20 -31 -13 -64q-53 -53 -157.5 -155.5t-153.5 -151.5q-25 -5 -29 26zM391 106l205 287q16 25 10 49l-82 297q10 31 39 21q106 -190 180 -309q20 -31 -12 -64q-53 -53 -157.5 -155.5t-153.5 -151.5 q-25 -5 -29 26z" />
<glyph unicode="&#xbc;" horiz-adv-x="1679" d="M221 522q0 14 6 19l37 4q61 6 82 33q18 20 43 102l119 399q18 63 16 78q2 20 -43 29l-61 10q-16 20 4 35q162 25 258 72q18 4 23 -13q-14 -39 -50 -145l-137 -467q-20 -66 -20 -90q0 -37 61 -43l39 -4q6 -4 6 -17q0 -16 -12 -22q-106 4 -195 4q-96 0 -170 -4q-6 4 -6 20z M324 -29q561 666 1140 1368q59 0 60 -51q-514 -608 -1145 -1370q-55 0 -55 53zM901 258q6 18 33 43l606 559q27 25 45 25q41 0 41 -11q0 -4 -8 -12l-586 -538q-14 -14 -14 -21q0 -10 41 -10h190q39 0 49 33l68 227q6 18 18 25q45 23 89 22q27 0 14 -39l-72 -239 q-8 -29 21 -29h77q10 -8 7 -27q-6 -20 -21 -28h-69q-39 0 -48 -29l-20 -72q-14 -47 -14 -61q0 -29 51 -37l49 -8q8 -6 4 -19q-2 -12 -10 -16q-139 4 -185 4q-70 0 -172 -4q-8 4 -8 16q2 12 10 19l50 8q49 8 70.5 25.5t35.5 72.5l19 68q6 20 2 26t-31 7h-320q-18 0 -12 20z " />
<glyph unicode="&#xbd;" horiz-adv-x="1679" d="M188 522q0 14 7 19l36 4q61 6 82 33q18 20 43 102l119 399q18 63 17 78q2 20 -43 29l-62 10q-16 20 4 35q162 25 258 72q18 4 23 -13q-14 -39 -49 -145l-138 -467q-20 -66 -20 -90q0 -37 61 -43l39 -4q6 -4 6 -17q0 -16 -12 -22q-106 4 -194 4q-96 0 -170 -4q-6 4 -7 20z M283 -29q561 666 1140 1368q59 0 60 -51q-514 -608 -1145 -1370q-55 0 -55 53zM918 27q104 63 255.5 185t196.5 169q111 117 111 219q0 55 -37 91t-96 36q-96 0 -193 -119q-29 -12 -33 21q43 80 120 128t163 48q100 0 161.5 -52.5t61.5 -140.5q0 -82 -69 -161 q-49 -57 -166 -144l-103 -76q-135 -100 -135 -122q0 -11 37 -11h127q78 0 113 13q43 14 73 59q6 4 19 4q20 0 26 -10q-35 -55 -88 -168q-66 4 -209 4h-176q-104 0 -153 -4q-18 12 -6 31z" />
<glyph unicode="&#xbe;" horiz-adv-x="1679" d="M160 510q0 25 18.5 43t44.5 18q41 0 70 -55q18 -37 61 -37q125 0 217.5 90t92.5 211q0 63 -40 102.5t-104 39.5q-70 0 -145 -60q-41 18 -17 64q188 74 199 78q150 74 150 155q0 84 -99 84q-109 0 -198 -121q-31 -4 -31 27q43 70 115 115q79 47 165 47q80 0 130.5 -40 t50.5 -102q0 -104 -199 -172q-12 -4 -6 -10q4 -6 18 -10q162 -39 162 -180q0 -166 -174 -275q-154 -96 -334 -96q-147 0 -147 84zM393 -29q561 666 1141 1368q59 0 59 -51q-514 -608 -1144 -1370q-56 0 -56 53zM950 258q6 18 33 43l606 559q27 25 45 25q41 0 41 -11 q0 -4 -8 -12l-586 -538q-14 -14 -14 -21q0 -10 41 -10h190q39 0 50 33l67 227q6 18 19 25q45 23 88 22q27 0 14 -39l-72 -239q-8 -29 21 -29h78q10 -8 6 -27q-6 -20 -21 -28h-69q-39 0 -47 -29l-21 -72q-14 -47 -14 -61q0 -29 51 -37l49 -8q8 -6 4 -19q-2 -12 -10 -16 q-139 4 -184 4q-70 0 -172 -4q-8 4 -9 16q2 12 11 19l49 8q49 8 70.5 25.5t35.5 72.5l19 68q6 20 2 26t-31 7h-319q-18 0 -13 20z" />
<glyph unicode="&#xbf;" horiz-adv-x="614" d="M-47 -254q0 182 211 299l137 76q94 51 94 133q0 47 -18 98q12 23 33 10q70 -88 69 -172q0 -116 -166 -210l-127 -72q-166 -94 -166 -187q0 -66 43 -105.5t101 -39.5q43 0 89 22.5t48 22.5q39 0 39 -57q0 -43 -42 -76t-105 -33q-90 0 -165 90t-75 201zM354 680q0 53 36 90 t81 37q90 0 90 -92q0 -59 -34.5 -95t-82.5 -36q-90 0 -90 96z" />
<glyph unicode="&#xc0;" horiz-adv-x="1220" d="M-111 -6q-20 27 5 51l55 6q84 10 147 86q84 102 338 461l361 508q111 154 123 211q43 6 98 36.5t51 30.5q25 0 25 -16q0 -14 -7 -96q-8 -106 -14 -205l-41 -774q-4 -94 -4 -127q0 -72 18 -89.5t86 -25.5l54 -6q8 -8 6 -27q-4 -18 -14 -24q-94 6 -232 6q-143 0 -235 -6 q-14 6 -17 26q0 18 15 25l63 6q63 6 79.5 32t22.5 128l19 274q2 35 -4 44.5t-39 9.5h-295q-47 0 -61.5 -9.5t-42.5 -54.5l-199 -311q-43 -68 -43 -76q0 -23 47 -31l76 -12q12 -8 10 -27q-2 -18 -14 -24q-94 6 -209 6q-117 0 -228 -6zM557 631q2 -10 43 -10h258q27 0 33 6 t8 35l33 448q4 53 -4 53t-78 -100l-285 -412q-8 -12 -8 -18v-2zM631 1620q0 18 20 55q27 47 51 47q20 0 56 -26l319 -244q11 -29 -18 -37l-371 162q-57 25 -57 43z" />
<glyph unicode="&#xc1;" horiz-adv-x="1220" d="M-111 -6q-20 27 5 51l55 6q84 10 147 86q84 102 338 461l361 508q111 154 123 211q43 6 98 36.5t51 30.5q25 0 25 -16q0 -14 -7 -96q-8 -106 -14 -205l-41 -774q-4 -94 -4 -127q0 -72 18 -89.5t86 -25.5l54 -6q8 -8 6 -27q-4 -18 -14 -24q-94 6 -232 6q-143 0 -235 -6 q-14 6 -17 26q0 18 15 25l63 6q63 6 79.5 32t22.5 128l19 274q2 35 -4 44.5t-39 9.5h-295q-47 0 -61.5 -9.5t-42.5 -54.5l-199 -311q-43 -68 -43 -76q0 -23 47 -31l76 -12q12 -8 10 -27q-2 -18 -14 -24q-94 6 -209 6q-117 0 -228 -6zM557 631q2 -10 43 -10h258q27 0 33 6 t8 35l33 448q4 53 -4 53t-78 -100l-285 -412q-8 -12 -8 -18v-2zM971 1452l319 244q35 27 56 26q25 0 51 -47q20 -37 20 -55t-57 -43l-371 -162q-29 8 -18 37z" />
<glyph unicode="&#xc2;" horiz-adv-x="1220" d="M-111 -6q-20 27 5 51l55 6q84 10 147 86q84 102 338 461l361 508q111 154 123 211q43 6 98 36.5t51 30.5q25 0 25 -16q0 -14 -7 -96q-8 -106 -14 -205l-41 -774q-4 -94 -4 -127q0 -72 18 -89.5t86 -25.5l54 -6q8 -8 6 -27q-4 -18 -14 -24q-94 6 -232 6q-143 0 -235 -6 q-14 6 -17 26q0 18 15 25l63 6q63 6 79.5 32t22.5 128l19 274q2 35 -4 44.5t-39 9.5h-295q-47 0 -61.5 -9.5t-42.5 -54.5l-199 -311q-43 -68 -43 -76q0 -23 47 -31l76 -12q12 -8 10 -27q-2 -18 -14 -24q-94 6 -209 6q-117 0 -228 -6zM557 631q2 -10 43 -10h258q27 0 33 6 t8 35l33 448q4 53 -4 53t-78 -100l-285 -412q-8 -12 -8 -18v-2zM717 1446l297 248q25 20 47 20q23 0 41 -20l223 -248q8 -33 -31 -33l-211 135q-25 16 -36 17q-12 0 -37 -13l-269 -139q-29 0 -24 33z" />
<glyph unicode="&#xc3;" horiz-adv-x="1220" d="M-111 -6q-20 27 5 51l55 6q84 10 147 86q84 102 338 461l361 508q111 154 123 211q43 6 98 36.5t51 30.5q25 0 25 -16q0 -14 -7 -96q-8 -106 -14 -205l-41 -774q-4 -94 -4 -127q0 -72 18 -89.5t86 -25.5l54 -6q8 -8 6 -27q-4 -18 -14 -24q-94 6 -232 6q-143 0 -235 -6 q-14 6 -17 26q0 18 15 25l63 6q63 6 79.5 32t22.5 128l19 274q2 35 -4 44.5t-39 9.5h-295q-47 0 -61.5 -9.5t-42.5 -54.5l-199 -311q-43 -68 -43 -76q0 -23 47 -31l76 -12q12 -8 10 -27q-2 -18 -14 -24q-94 6 -209 6q-117 0 -228 -6zM557 631q2 -10 43 -10h258q27 0 33 6 t8 35l33 448q4 53 -4 53t-78 -100l-285 -412q-8 -12 -8 -18v-2zM756 1413q27 119 78 170q41 41 116 41h224q84 0 114 33q20 23 47 59q23 14 35 -8q-25 -86 -82 -152q-32 -36 -102 -36h-219q-80 0 -123 -39q-35 -31 -58 -78q-20 -12 -30 10z" />
<glyph unicode="&#xc4;" horiz-adv-x="1220" d="M-111 -6q-20 27 5 51l55 6q84 10 147 86q84 102 338 461l361 508q111 154 123 211q43 6 98 36.5t51 30.5q25 0 25 -16q0 -14 -7 -96q-8 -106 -14 -205l-41 -774q-4 -94 -4 -127q0 -72 18 -89.5t86 -25.5l54 -6q8 -8 6 -27q-4 -18 -14 -24q-94 6 -232 6q-143 0 -235 -6 q-14 6 -17 26q0 18 15 25l63 6q63 6 79.5 32t22.5 128l19 274q2 35 -4 44.5t-39 9.5h-295q-47 0 -61.5 -9.5t-42.5 -54.5l-199 -311q-43 -68 -43 -76q0 -23 47 -31l76 -12q12 -8 10 -27q-2 -18 -14 -24q-94 6 -209 6q-117 0 -228 -6zM557 631q2 -10 43 -10h258q27 0 33 6 t8 35l33 448q4 53 -4 53t-78 -100l-285 -412q-8 -12 -8 -18v-2zM737 1534q0 53 33 88t76 35q39 0 62.5 -26.5t23.5 -61.5q0 -55 -33 -88t-78 -33q-84 0 -84 86zM1143 1534q0 53 32.5 88t75.5 35q39 0 62.5 -26.5t23.5 -61.5q0 -55 -32.5 -88t-77.5 -33q-84 0 -84 86z" />
<glyph unicode="&#xc5;" horiz-adv-x="1220" d="M-111 -6q-20 27 5 51l55 6q84 10 147 86q84 102 338 461l361 508q135 190 157 237q-102 53 -102 168q0 80 58.5 137.5t146.5 57.5t146.5 -57.5t58.5 -137.5q0 -72 -48.5 -127t-124.5 -63q0 -4 -6 -76q-6 -90 -10 -178l-41 -774q-4 -94 -4 -127q0 -72 18.5 -89.5 t85.5 -25.5l54 -6q8 -8 6 -27q-4 -18 -14 -24q-94 6 -232 6q-143 0 -235 -6q-14 6 -17 26q0 18 15 25l63 6q63 6 79.5 32t22.5 128l19 274q2 35 -4 44.5t-39 9.5h-295q-47 0 -61.5 -9.5t-42.5 -54.5l-199 -311q-43 -68 -43 -76q0 -23 47 -31l76 -12q12 -8 10 -27 q-2 -18 -14 -24q-94 6 -209 6q-117 0 -228 -6zM557 631q2 -10 43 -10h258q27 0 33 6t8 35l33 448q4 53 -4 53t-78 -100l-285 -412q-8 -12 -8 -18v-2zM946 1511q0 -55 31 -91t78 -36t77.5 36t30.5 91q0 53 -30.5 90t-77.5 37q-45 0 -77 -37t-32 -90z" />
<glyph unicode="&#xc6;" horiz-adv-x="1724" d="M-150 23q0 18 11 26l45 6q55 8 100 40t125 124q518 596 815 967q49 61 49 78q0 18 -45 24l-116 19q-10 6 -9 26q4 18 19 25q127 -6 256 -6h514q227 0 289 6q-25 -61 -84 -273q-6 -12 -27 -10q-20 0 -25 12q6 61 7 84q0 78 -78 99q-70 18 -217 18h-121q-41 0 -53.5 -10 t-26.5 -59l-129 -420q-10 -37 -10 -45q0 -14 47 -15h102q127 0 160 9q82 16 123 92l33 61q6 10 26 10q23 -2 25 -14q-35 -82 -70 -199q-31 -102 -53 -198q-8 -12 -27 -11q-18 0 -24 13v57q0 76 -47 94q-33 14 -164 15h-103q-43 0 -55 -8.5t-25 -51.5l-86 -276 q-43 -139 -43 -185q0 -25 9 -41q20 -43 227 -43q182 0 254 31q90 39 182 182q8 6 19 7q20 0 28 -19q-16 -55 -57 -137q-47 -96 -84 -133q-203 6 -469 6h-242q-109 0 -243 -6q-12 8 -13 24q0 16 11 27l71 12q76 12 106.5 49t78.5 189l100 323q6 18 6 27q0 23 -61 23h-211 q-35 0 -53.5 -10.5t-53.5 -53.5q-231 -281 -373 -463q-31 -39 -30 -55q0 -18 30 -23l89 -14q10 -10 8 -31q-2 -18 -13 -24q-100 6 -221 6q-92 0 -192 -6q-10 10 -11 29zM688 748q0 -9 45 -9h160q53 0 71.5 10.5t30.5 51.5l125 409q18 61 15 78h-5q-10 -6 -59 -65 q-162 -193 -364 -447q-18 -23 -19 -28z" />
<glyph unicode="&#xc7;" horiz-adv-x="1323" d="M209 518q0 172 84 340q78 158 209 277q276 249 688 249q172 0 336 -65q-61 -152 -92 -275q-6 -12 -29 -10q-23 0 -27 13q12 55 13 96q0 178 -236 178q-291 0 -524 -229q-92 -90 -160 -244q-82 -184 -82 -369q0 -449 397 -448q266 0 441 286q39 16 49 -14 q-41 -125 -133 -289q-23 0 -162 -22.5t-178 -22.5l-37 -51q-23 -31 8 -51q88 -61 88 -152q0 -76 -73.5 -131t-161.5 -55q-121 0 -117 74q4 57 59 57q27 0 58 -35q25 -29 53 -28q55 0 61 67q4 41 -30.5 83t-85.5 65l2 14l100 145q-219 12 -354 129q-164 143 -164 418z" />
<glyph unicode="&#xc8;" horiz-adv-x="1159" d="M4 18q0 16 10 27l72 6q74 6 104.5 47t79.5 197l238 762q41 133 41 172q0 53 -86 69l-41 9q-10 12 -6 28q2 16 18 23q111 -6 228 -6h387q227 0 288 6q-25 -61 -84 -273q-6 -12 -26 -10q-20 0 -25 12q6 61 6 84q0 78 -78 99q-70 18 -217 18h-120q-39 0 -52.5 -11t-27.5 -58 l-131 -420q-12 -37 -13 -45q0 -14 49 -15h103q127 0 160 9q82 16 123 92l32 61q6 10 27 10q23 -2 24 -14q-35 -82 -69 -199q-31 -102 -53 -198q-8 -12 -27 -11q-18 0 -25 13v57q0 76 -47 94q-33 14 -164 15h-102q-43 0 -55.5 -8.5t-24.5 -51.5l-84 -276q-43 -141 -43 -185 q0 -25 8 -41q20 -43 228 -43q182 0 254 31q90 39 182 182q8 6 18 7q20 0 29 -19q-16 -55 -57 -137q-47 -96 -84 -133q-203 6 -469 6h-242q-109 0 -244 -6q-12 8 -12 24zM569 1620q0 18 21 55q27 47 51 47q20 0 55 -26l320 -244q10 -29 -19 -37l-370 162q-57 25 -58 43z" />
<glyph unicode="&#xc9;" horiz-adv-x="1159" d="M4 18q0 16 10 27l72 6q74 6 104.5 47t79.5 197l238 762q41 133 41 172q0 53 -86 69l-41 9q-10 12 -6 28q2 16 18 23q111 -6 228 -6h387q227 0 288 6q-25 -61 -84 -273q-6 -12 -26 -10q-20 0 -25 12q6 61 6 84q0 78 -78 99q-70 18 -217 18h-120q-39 0 -52.5 -11t-27.5 -58 l-131 -420q-12 -37 -13 -45q0 -14 49 -15h103q127 0 160 9q82 16 123 92l32 61q6 10 27 10q23 -2 24 -14q-35 -82 -69 -199q-31 -102 -53 -198q-8 -12 -27 -11q-18 0 -25 13v57q0 76 -47 94q-33 14 -164 15h-102q-43 0 -55.5 -8.5t-24.5 -51.5l-84 -276q-43 -141 -43 -185 q0 -25 8 -41q20 -43 228 -43q182 0 254 31q90 39 182 182q8 6 18 7q20 0 29 -19q-16 -55 -57 -137q-47 -96 -84 -133q-203 6 -469 6h-242q-109 0 -244 -6q-12 8 -12 24zM893 1452l319 244q35 27 56 26q25 0 51 -47q20 -37 20 -55t-57 -43l-371 -162q-29 8 -18 37z" />
<glyph unicode="&#xca;" horiz-adv-x="1159" d="M4 18q0 16 10 27l72 6q74 6 104.5 47t79.5 197l238 762q41 133 41 172q0 53 -86 69l-41 9q-10 12 -6 28q2 16 18 23q111 -6 228 -6h387q227 0 288 6q-25 -61 -84 -273q-6 -12 -26 -10q-20 0 -25 12q6 61 6 84q0 78 -78 99q-70 18 -217 18h-120q-39 0 -52.5 -11t-27.5 -58 l-131 -420q-12 -37 -13 -45q0 -14 49 -15h103q127 0 160 9q82 16 123 92l32 61q6 10 27 10q23 -2 24 -14q-35 -82 -69 -199q-31 -102 -53 -198q-8 -12 -27 -11q-18 0 -25 13v57q0 76 -47 94q-33 14 -164 15h-102q-43 0 -55.5 -8.5t-24.5 -51.5l-84 -276q-43 -141 -43 -185 q0 -25 8 -41q20 -43 228 -43q182 0 254 31q90 39 182 182q8 6 18 7q20 0 29 -19q-16 -55 -57 -137q-47 -96 -84 -133q-203 6 -469 6h-242q-109 0 -244 -6q-12 8 -12 24zM621 1446l297 248q25 20 47 20q23 0 41 -20l223 -248q8 -33 -31 -33l-211 135q-25 16 -37 17 q-12 0 -37 -13l-268 -139q-29 0 -24 33z" />
<glyph unicode="&#xcb;" horiz-adv-x="1159" d="M4 18q0 16 10 27l72 6q74 6 104.5 47t79.5 197l238 762q41 133 41 172q0 53 -86 69l-41 9q-10 12 -6 28q2 16 18 23q111 -6 228 -6h387q227 0 288 6q-25 -61 -84 -273q-6 -12 -26 -10q-20 0 -25 12q6 61 6 84q0 78 -78 99q-70 18 -217 18h-120q-39 0 -52.5 -11t-27.5 -58 l-131 -420q-12 -37 -13 -45q0 -14 49 -15h103q127 0 160 9q82 16 123 92l32 61q6 10 27 10q23 -2 24 -14q-35 -82 -69 -199q-31 -102 -53 -198q-8 -12 -27 -11q-18 0 -25 13v57q0 76 -47 94q-33 14 -164 15h-102q-43 0 -55.5 -8.5t-24.5 -51.5l-84 -276q-43 -141 -43 -185 q0 -25 8 -41q20 -43 228 -43q182 0 254 31q90 39 182 182q8 6 18 7q20 0 29 -19q-16 -55 -57 -137q-47 -96 -84 -133q-203 6 -469 6h-242q-109 0 -244 -6q-12 8 -12 24zM641 1534q0 53 33 88t76 35q39 0 62.5 -26.5t23.5 -61.5q0 -55 -33 -88t-78 -33q-84 0 -84 86z M1047 1534q0 53 32.5 88t75.5 35q39 0 62.5 -26.5t23.5 -61.5q0 -55 -33 -88t-78 -33q-84 0 -83 86z" />
<glyph unicode="&#xcc;" horiz-adv-x="698" d="M14 18q0 16 11 27l63 6q74 6 104.5 47t79.5 197l240 762q43 135 43 172q0 55 -90 69l-49 9q-10 12 -6 28q2 16 18 23q123 -6 238 -6q98 0 245 6q12 -6 13 -25q0 -18 -13 -26l-55 -9q-86 -12 -113.5 -49t-76.5 -192l-240 -762q-43 -137 -43 -178q0 -57 82 -66l63 -6 q8 -10 7 -29q-4 -16 -15 -22q-150 6 -258 6q-113 0 -235 -6q-12 8 -13 24zM309 1620q0 18 21 55q27 47 51 47q20 0 55 -26l320 -244q10 -29 -19 -37l-370 162q-57 25 -58 43z" />
<glyph unicode="&#xcd;" horiz-adv-x="698" d="M14 18q0 16 11 27l63 6q74 6 104.5 47t79.5 197l240 762q43 135 43 172q0 55 -90 69l-49 9q-10 12 -6 28q2 16 18 23q123 -6 238 -6q98 0 245 6q12 -6 13 -25q0 -18 -13 -26l-55 -9q-86 -12 -113.5 -49t-76.5 -192l-240 -762q-43 -137 -43 -178q0 -57 82 -66l63 -6 q8 -10 7 -29q-4 -16 -15 -22q-150 6 -258 6q-113 0 -235 -6q-12 8 -13 24zM659 1452l320 244q35 27 55 26q25 0 51 -47q20 -37 21 -55q0 -18 -57 -43l-371 -162q-29 8 -19 37z" />
<glyph unicode="&#xce;" horiz-adv-x="698" d="M14 18q0 16 11 27l63 6q74 6 104.5 47t79.5 197l240 762q43 135 43 172q0 55 -90 69l-49 9q-10 12 -6 28q2 16 18 23q123 -6 238 -6q98 0 245 6q12 -6 13 -25q0 -18 -13 -26l-55 -9q-86 -12 -113.5 -49t-76.5 -192l-240 -762q-43 -137 -43 -178q0 -57 82 -66l63 -6 q8 -10 7 -29q-4 -16 -15 -22q-150 6 -258 6q-113 0 -235 -6q-12 8 -13 24zM391 1446l297 248q25 20 47 20q23 0 41 -20l223 -248q8 -33 -30 -33l-211 135q-25 16 -37 17q-12 0 -37 -13l-268 -139q-29 0 -25 33z" />
<glyph unicode="&#xcf;" horiz-adv-x="698" d="M14 18q0 16 11 27l63 6q74 6 104.5 47t79.5 197l240 762q43 135 43 172q0 55 -90 69l-49 9q-10 12 -6 28q2 16 18 23q123 -6 238 -6q98 0 245 6q12 -6 13 -25q0 -18 -13 -26l-55 -9q-86 -12 -113.5 -49t-76.5 -192l-240 -762q-43 -137 -43 -178q0 -57 82 -66l63 -6 q8 -10 7 -29q-4 -16 -15 -22q-150 6 -258 6q-113 0 -235 -6q-12 8 -13 24zM412 1534q0 53 32.5 88t75.5 35q39 0 62.5 -26.5t23.5 -61.5q0 -55 -32.5 -88t-77.5 -33q-84 0 -84 86zM817 1534q0 53 33 88t76 35q39 0 62.5 -26.5t23.5 -61.5q0 -55 -33 -88t-78 -33 q-84 0 -84 86z" />
<glyph unicode="&#xd0;" horiz-adv-x="1525" d="M29 18q0 16 10 27l53 6q72 8 102.5 49t77.5 195l115 373h-219q-13 48 16 71h226l118 385q23 72 23 103q0 45 -57 51l-82 10q-10 6 -11 25q0 16 11 24q154 20 381 21q401 0 589 -182q147 -143 148 -377q0 -195 -88 -361q-86 -158 -236 -260q-270 -184 -684 -184 q-23 0 -105.5 3t-150.5 3q-117 0 -225 -6q-12 8 -12 24zM393 166q0 -100 199 -100q391 0 600 276q156 207 156 442q0 213 -80 328q-125 182 -461 182q-47 0 -64.5 -15t-31.5 -65l-148 -475h299q4 -12 4 -24q1 -33 -22 -47h-303l-135 -435q-12 -39 -13 -67z" />
<glyph unicode="&#xd1;" horiz-adv-x="1513" d="M2 16q-4 18 8 29l51 6q66 8 101 35q44 35 155 391l162 524q68 219 68 244q0 35 -53 45l-82 17q-12 10 -9 28q4 18 19 23q92 -6 209 -6h127v-29q0 -49 100 -297l207 -510q76 -184 100 -231q16 0 35 57l162 514q98 313 98 379q0 51 -51 59l-80 13q-23 35 12 51 q109 -6 232 -6q106 0 194 6q8 -6 11 -25q0 -18 -9 -26l-47 -9q-84 -14 -106 -36q-53 -53 -168 -412l-148 -459q-68 -211 -129 -422q-16 -16 -49 -12q-29 86 -190 500l-162 393q-51 135 -137 338q-12 0 -66 -180l-159 -533q-23 -74 -86 -340q-4 -14 -5 -24q0 -45 105 -60 l47 -6q8 -8 6 -27q-2 -16 -12 -24q-92 6 -234 6q-119 0 -215 -6q-10 6 -12 22zM838 1413q27 119 77 170q41 41 117 41h223q84 0 115 33q20 23 47 59q23 14 35 -8q-25 -86 -82 -152q-32 -36 -102 -36h-219q-80 0 -123 -39q-35 -31 -58 -78q-20 -12 -30 10z" />
<glyph unicode="&#xd2;" horiz-adv-x="1495" d="M209 502q12 428 328 696q218 186 499 186q215 0 350 -139q147 -152 136 -422q-8 -174 -82 -344q-76 -176 -195 -289q-236 -223 -536 -223q-246 0 -383 170q-123 150 -117 365zM381 424q-6 -166 68 -268q88 -125 274 -125q188 0 342 164q131 141 209 350q70 186 76 368 q8 193 -79 300.5t-243 107.5q-162 0 -307 -123q-127 -109 -221 -301q-111 -227 -119 -473zM696 1620q0 18 21 55q27 47 51 47q20 0 55 -26l320 -244q10 -29 -19 -37l-370 162q-57 25 -58 43z" />
<glyph unicode="&#xd3;" horiz-adv-x="1495" d="M209 502q12 428 328 696q218 186 499 186q215 0 350 -139q147 -152 136 -422q-8 -174 -82 -344q-76 -176 -195 -289q-236 -223 -536 -223q-246 0 -383 170q-123 150 -117 365zM381 424q-6 -166 68 -268q88 -125 274 -125q188 0 342 164q131 141 209 350q70 186 76 368 q8 193 -79 300.5t-243 107.5q-162 0 -307 -123q-127 -109 -221 -301q-111 -227 -119 -473zM983 1452l320 244q35 27 55 26q25 0 51 -47q20 -37 21 -55q-1 -18 -58 -43l-371 -162q-29 8 -18 37z" />
<glyph unicode="&#xd4;" horiz-adv-x="1495" d="M209 502q12 428 328 696q218 186 499 186q215 0 350 -139q147 -152 136 -422q-8 -174 -82 -344q-76 -176 -195 -289q-236 -223 -536 -223q-246 0 -383 170q-123 150 -117 365zM381 424q-6 -166 68 -268q88 -125 274 -125q188 0 342 164q131 141 209 350q70 186 76 368 q8 193 -79 300.5t-243 107.5q-162 0 -307 -123q-127 -109 -221 -301q-111 -227 -119 -473zM739 1446l297 248q25 20 47 20q23 0 41 -20l224 -248q8 -33 -31 -33l-211 135q-25 16 -37 17q-12 0 -37 -13l-268 -139q-29 0 -25 33z" />
<glyph unicode="&#xd5;" horiz-adv-x="1495" d="M209 502q12 428 328 696q218 186 499 186q215 0 350 -139q147 -152 136 -422q-8 -174 -82 -344q-76 -176 -195 -289q-236 -223 -536 -223q-246 0 -383 170q-123 150 -117 365zM381 424q-6 -166 68 -268q88 -125 274 -125q188 0 342 164q131 141 209 350q70 186 76 368 q8 193 -79 300.5t-243 107.5q-162 0 -307 -123q-127 -109 -221 -301q-111 -227 -119 -473zM778 1413q27 119 78 170q41 41 117 41h223q84 0 115 33q20 23 47 59q23 14 35 -8q-25 -86 -82 -152q-33 -36 -103 -36h-219q-80 0 -123 -39q-35 -31 -57 -78q-20 -12 -31 10z" />
<glyph unicode="&#xd6;" horiz-adv-x="1495" d="M209 502q12 428 328 696q218 186 499 186q215 0 350 -139q147 -152 136 -422q-8 -174 -82 -344q-76 -176 -195 -289q-236 -223 -536 -223q-246 0 -383 170q-123 150 -117 365zM381 424q-6 -166 68 -268q88 -125 274 -125q188 0 342 164q131 141 209 350q70 186 76 368 q8 193 -79 300.5t-243 107.5q-162 0 -307 -123q-127 -109 -221 -301q-111 -227 -119 -473zM760 1534q0 53 32.5 88t75.5 35q39 0 62.5 -26.5t23.5 -61.5q0 -55 -32.5 -88t-77.5 -33q-84 0 -84 86zM1165 1534q0 53 33 88t76 35q39 0 62.5 -26.5t23.5 -61.5q0 -55 -33 -88 t-78 -33q-84 0 -84 86z" />
<glyph unicode="&#xd7;" horiz-adv-x="1146" d="M256 102l301 306l-301 301l76 79l303 -303l305 308l76 -78l-303 -307l303 -306l-76 -79l-305 307l-303 -307z" />
<glyph unicode="&#xd8;" horiz-adv-x="1495" d="M135 -33l176 191q-109 147 -102 344q12 428 328 696q219 186 499 186q182 0 314 -106l139 156q18 0 34.5 -18t18.5 -36l-139 -153q131 -147 119 -404q-8 -172 -80 -342q-76 -176 -197 -291q-233 -223 -536 -223q-217 0 -349 131l-174 -188q-51 4 -51 57zM381 420 q-5 -92 20 -166l879 948q-90 119 -252 119t-307 -123q-127 -109 -221 -301q-111 -227 -119 -477zM432 176q80 -145 281 -145q205 0 354 162q266 287 283 749q4 113 -33 193z" />
<glyph unicode="&#xd9;" horiz-adv-x="1503" d="M285 313q0 103 41 232l159 512q41 133 41 172q0 57 -88 71l-51 9q-10 10 -8 26t16 23q129 -6 240 -6q102 0 252 6q12 -6 12 -25q0 -16 -14 -24l-58 -9q-84 -12 -114 -53q-25 -33 -74 -190l-147 -473q-47 -154 -48 -262q0 -281 314 -281q340 0 506 508l94 289 q61 188 82 317q8 55 8 74q0 59 -86 71l-57 9q-10 10 -7 26q2 16 15 23q152 -6 219 -6q102 0 221 6q12 -8 12 -25q0 -16 -12 -24l-47 -9q-74 -12 -101.5 -39.5t-60.5 -111.5q-14 -37 -100 -311l-94 -301q-94 -301 -240 -428q-162 -141 -387 -142q-438 0 -438 346zM721 1620 q0 18 20 55q27 47 52 47q20 0 55 -26l319 -244q11 -29 -18 -37l-371 162q-57 25 -57 43z" />
<glyph unicode="&#xda;" horiz-adv-x="1503" d="M285 313q0 103 41 232l159 512q41 133 41 172q0 57 -88 71l-51 9q-10 10 -8 26t16 23q129 -6 240 -6q102 0 252 6q12 -6 12 -25q0 -16 -14 -24l-58 -9q-84 -12 -114 -53q-25 -33 -74 -190l-147 -473q-47 -154 -48 -262q0 -281 314 -281q340 0 506 508l94 289 q61 188 82 317q8 55 8 74q0 59 -86 71l-57 9q-10 10 -7 26q2 16 15 23q152 -6 219 -6q102 0 221 6q12 -8 12 -25q0 -16 -12 -24l-47 -9q-74 -12 -101.5 -39.5t-60.5 -111.5q-14 -37 -100 -311l-94 -301q-94 -301 -240 -428q-162 -141 -387 -142q-438 0 -438 346zM1040 1452 l320 244q35 27 55 26q25 0 51 -47q20 -37 21 -55q0 -18 -57 -43l-371 -162q-29 8 -19 37z" />
<glyph unicode="&#xdb;" horiz-adv-x="1503" d="M285 313q0 103 41 232l159 512q41 133 41 172q0 57 -88 71l-51 9q-10 10 -8 26t16 23q129 -6 240 -6q102 0 252 6q12 -6 12 -25q0 -16 -14 -24l-58 -9q-84 -12 -114 -53q-25 -33 -74 -190l-147 -473q-47 -154 -48 -262q0 -281 314 -281q340 0 506 508l94 289 q61 188 82 317q8 55 8 74q0 59 -86 71l-57 9q-10 10 -7 26q2 16 15 23q152 -6 219 -6q102 0 221 6q12 -8 12 -25q0 -16 -12 -24l-47 -9q-74 -12 -101.5 -39.5t-60.5 -111.5q-14 -37 -100 -311l-94 -301q-94 -301 -240 -428q-162 -141 -387 -142q-438 0 -438 346zM793 1446 l297 248q25 20 47 20q23 0 41 -20l223 -248q8 -33 -31 -33l-211 135q-25 16 -37 17q-12 0 -37 -13l-268 -139q-29 0 -24 33z" />
<glyph unicode="&#xdc;" horiz-adv-x="1503" d="M285 313q0 103 41 232l159 512q41 133 41 172q0 57 -88 71l-51 9q-10 10 -8 26t16 23q129 -6 240 -6q102 0 252 6q12 -6 12 -25q0 -16 -14 -24l-58 -9q-84 -12 -114 -53q-25 -33 -74 -190l-147 -473q-47 -154 -48 -262q0 -281 314 -281q340 0 506 508l94 289 q61 188 82 317q8 55 8 74q0 59 -86 71l-57 9q-10 10 -7 26q2 16 15 23q152 -6 219 -6q102 0 221 6q12 -8 12 -25q0 -16 -12 -24l-47 -9q-74 -12 -101.5 -39.5t-60.5 -111.5q-14 -37 -100 -311l-94 -301q-94 -301 -240 -428q-162 -141 -387 -142q-438 0 -438 346zM813 1534 q0 53 33 88t76 35q39 0 62.5 -26.5t23.5 -61.5q0 -55 -33 -88t-78 -33q-84 0 -84 86zM1219 1534q0 53 32.5 88t75.5 35q39 0 62.5 -26.5t23.5 -61.5q0 -55 -32.5 -88t-77.5 -33q-84 0 -84 86z" />
<glyph unicode="&#xdd;" horiz-adv-x="1155" d="M252 20q0 16 10 25l74 6q72 6 101.5 46t82.5 198l41 121q31 92 31 143q0 45 -17 119l-102 444q-23 102 -41 131q-23 37 -76 45l-51 9q-8 10 -6 28q2 16 12 23q115 -6 217 -6q121 0 220 6q10 -8 10 -25q0 -18 -10 -26l-60 -9q-82 -12 -82 -65q0 -18 6 -47l105 -481 q8 -39 20 -39q10 0 41 36l252 304q197 238 197 258q0 25 -60 34l-51 9q-10 10 -10 26q2 16 14 25q121 -6 213 -6q84 0 185 6q10 -6 10 -25q0 -16 -10 -26l-43 -9q-80 -14 -115 -47q-94 -86 -201 -211l-233 -274q-111 -129 -138 -174q-37 -57 -73 -174l-39 -123 q-45 -141 -45 -182q0 -55 84 -62l73 -6q10 -8 9 -27q-4 -20 -15 -24q-172 6 -274 6q-104 0 -244 -6q-12 8 -12 26zM928 1452l319 244q35 27 56 26q25 0 51 -47q20 -37 20 -55t-57 -43l-371 -162q-29 8 -18 37z" />
<glyph unicode="&#xde;" horiz-adv-x="1146" d="M16 18q0 18 13 27l59 6q72 8 102.5 48t79.5 196l240 762q43 135 43 172q0 55 -90 69l-49 9q-25 35 12 51q123 -6 238 -6q127 0 245 6q10 -6 11 -25q0 -18 -11 -26l-45 -9q-92 -16 -121.5 -52t-74.5 -185h73q242 0 351 -90q100 -82 100 -219q0 -209 -201 -318 q-166 -88 -360 -76q-14 6 -15 23q0 10 9 18q92 16 153 39q100 35 166 119q74 90 74 201q0 240 -268 239q-63 0 -82 -8q-33 -10 -47 -57l-197 -637q-43 -137 -43 -178q0 -59 82 -66l92 -6q10 -10 8 -29q-4 -16 -14 -22q-197 6 -289 6q-115 0 -231 -6q-12 8 -13 24z" />
<glyph unicode="&#xdf;" horiz-adv-x="952" d="M-289 -440q0 27 19.5 56.5t44.5 29.5q16 0 37 -33q53 -80 127 -80q45 0 77 55q47 78 113 457q88 502 190 791q123 348 390 524q158 104 344 104q88 0 154.5 -55t66.5 -131q0 -96 -144 -195q-115 -66 -229 -133q-145 -88 -145 -213q0 -78 63.5 -229.5t63.5 -231.5 q0 -123 -95 -213q-37 -37 -91 -64.5t-83 -27.5q-57 0 -96 41q-33 35 -33 72t17.5 61.5t40.5 1.5q72 -72 129 -71q37 0 70.5 29.5t33.5 82.5q0 39 -76.5 212t-76.5 264q0 109 79 196q66 74 254 199q82 53 127 121q35 51 35 84q0 125 -162 125q-154 0 -297 -185 q-123 -156 -204 -391q-76 -213 -158 -620q-80 -385 -122 -489.5t-126 -176.5q-92 -78 -196 -78q-72 0 -111 41q-31 33 -31 70z" />
<glyph unicode="&#xe0;" horiz-adv-x="909" d="M41 86q0 49 39 147q51 127 141 250q137 190 271 265q106 59 184 59q25 0 50.5 -12t39.5 -43l57 131q12 6 29 6q55 0 72 -37q-174 -428 -275 -715q-16 -47 15 -47q55 0 210 137q29 0 29 -26q-70 -92 -162 -158q-102 -72 -182 -72q-59 0 -59 56q0 25 20 79l68 185l-6 2 q-106 -133 -241.5 -227.5t-209.5 -94.5q-41 0 -65.5 35t-24.5 80zM211 119q0 -39 31 -39q55 0 198 133q207 190 275 442q-27 74 -103 74q-55 0 -145 -80q-96 -86 -176 -253t-80 -277zM401 1237q0 27 37 53q29 20 51 21q35 0 70 -66l174 -321q-2 -25 -33 -25l-264 277 q-35 37 -35 61z" />
<glyph unicode="&#xe1;" horiz-adv-x="909" d="M41 86q0 49 39 147q51 127 141 250q137 190 271 265q106 59 184 59q25 0 50.5 -12t39.5 -43l57 131q12 6 29 6q55 0 72 -37q-174 -428 -275 -715q-16 -47 15 -47q55 0 210 137q29 0 29 -26q-70 -92 -162 -158q-102 -72 -182 -72q-59 0 -59 56q0 25 20 79l68 185l-6 2 q-106 -133 -241.5 -227.5t-209.5 -94.5q-41 0 -65.5 35t-24.5 80zM211 119q0 -39 31 -39q55 0 198 133q207 190 275 442q-27 74 -103 74q-55 0 -145 -80q-96 -86 -176 -253t-80 -277zM641 924l174 321q35 66 70 66q23 0 51 -21q37 -27 37 -53q0 -24 -35 -61l-264 -277 q-29 0 -33 25z" />
<glyph unicode="&#xe2;" horiz-adv-x="909" d="M41 86q0 49 39 147q51 127 141 250q137 190 271 265q106 59 184 59q25 0 50.5 -12t39.5 -43l57 131q12 6 29 6q55 0 72 -37q-174 -428 -275 -715q-16 -47 15 -47q55 0 210 137q29 0 29 -26q-70 -92 -162 -158q-102 -72 -182 -72q-59 0 -59 56q0 25 20 79l68 185l-6 2 q-106 -133 -241.5 -227.5t-209.5 -94.5q-41 0 -65.5 35t-24.5 80zM211 119q0 -39 31 -39q55 0 198 133q207 190 275 442q-27 74 -103 74q-55 0 -145 -80q-96 -86 -176 -253t-80 -277zM428 946l260 354q25 35 49 35q23 0 37 -41l125 -352q-8 -29 -41 -22l-123 215 q-18 31 -24 30q-10 0 -35 -26l-211 -224q-33 -4 -37 31z" />
<glyph unicode="&#xe3;" horiz-adv-x="909" d="M41 86q0 49 39 147q51 127 141 250q137 190 271 265q106 59 184 59q25 0 50.5 -12t39.5 -43l57 131q12 6 29 6q55 0 72 -37q-174 -428 -275 -715q-16 -47 15 -47q55 0 210 137q29 0 29 -26q-70 -92 -162 -158q-102 -72 -182 -72q-59 0 -59 56q0 25 20 79l68 185l-6 2 q-106 -133 -241.5 -227.5t-209.5 -94.5q-41 0 -65.5 35t-24.5 80zM211 119q0 -39 31 -39q55 0 198 133q207 190 275 442q-27 74 -103 74q-55 0 -145 -80q-96 -86 -176 -253t-80 -277zM389 942q25 111 78 170q37 41 117 41h223q84 0 115 33q20 23 47 59q23 14 35 -8 q-25 -86 -82 -152q-33 -36 -103 -36h-219q-80 0 -123 -39q-35 -31 -57 -78q-20 -12 -31 10z" />
<glyph unicode="&#xe4;" horiz-adv-x="909" d="M41 86q0 49 39 147q51 127 141 250q137 190 271 265q106 59 184 59q25 0 50.5 -12t39.5 -43l57 131q12 6 29 6q55 0 72 -37q-174 -428 -275 -715q-16 -47 15 -47q55 0 210 137q29 0 29 -26q-70 -92 -162 -158q-102 -72 -182 -72q-59 0 -59 56q0 25 20 79l68 185l-6 2 q-106 -133 -241.5 -227.5t-209.5 -94.5q-41 0 -65.5 35t-24.5 80zM211 119q0 -39 31 -39q55 0 198 133q207 190 275 442q-27 74 -103 74q-55 0 -145 -80q-96 -86 -176 -253t-80 -277zM424 1071q0 49 31.5 82t72.5 33q78 0 78 -82q0 -53 -30.5 -84t-71.5 -31q-80 0 -80 82z M780 1071q0 49 32 82t73 33q78 0 78 -82q0 -53 -31 -84t-72 -31q-80 0 -80 82z" />
<glyph unicode="&#xe5;" horiz-adv-x="909" d="M41 86q0 49 39 147q51 127 141 250q137 190 271 265q106 59 184 59q25 0 50.5 -12t39.5 -43l57 131q12 6 29 6q55 0 72 -37q-174 -428 -275 -715q-16 -47 15 -47q55 0 210 137q29 0 29 -26q-70 -92 -162 -158q-102 -72 -182 -72q-59 0 -59 56q0 25 20 79l68 185l-6 2 q-106 -133 -241.5 -227.5t-209.5 -94.5q-41 0 -65.5 35t-24.5 80zM211 119q0 -39 31 -39q55 0 198 133q207 190 275 442q-27 74 -103 74q-55 0 -145 -80q-96 -86 -176 -253t-80 -277zM506 1139q0 80 58.5 137t146.5 57t146 -57t58 -137t-58 -137.5t-146 -57.5t-146.5 57.5 t-58.5 137.5zM602 1139q0 -55 31 -91t78 -36t77.5 35.5t30.5 91.5q0 53 -30.5 90t-77.5 37q-45 0 -77 -37t-32 -90z" />
<glyph unicode="&#xe6;" horiz-adv-x="978" d="M41 80q0 76 63 192q53 98 119 174q127 143 348 279q109 68 121 72q76 39 146 39q76 0 116 -43q35 -37 35 -86q0 -90 -106 -201q-74 -76 -283 -238q0 -190 127 -190q66 0 160 117q35 12 41 -25q-63 -111 -158 -164q-63 -35 -117 -35q-135 0 -178 176q-84 -78 -176 -127 t-145 -49q-43 0 -74 25q-39 29 -39 84zM203 139q0 -57 45 -57q86 0 215 129q-10 223 90 430l-4 4q-139 -80 -246 -250q-100 -156 -100 -256zM596 334q119 109 192 215q68 102 68 160q1 65 -65 65q-82 0 -142 -149q-53 -135 -53 -291z" />
<glyph unicode="&#xe7;" horiz-adv-x="692" d="M82 -358q0 49 51 49q20 0 50 -30t42 -30q57 0 58 64q0 78 -109 127v8l109 141l-4 4q-8 -4 -33 -4q-154 0 -154 217q0 113 64 254q72 162 199.5 278t262.5 116q74 0 113 -35t39 -86q0 -41 -29.5 -69t-70.5 -28q-37 0 -41 37q-8 66 -13 76q-16 37 -59 37q-80 0 -172 -137 q-129 -190 -137 -424q-6 -133 88 -133q86 0 221 125q14 2 22.5 -8.5t4.5 -26.5q-94 -125 -222 -168l-55 -76q-16 -23 10 -45q76 -61 76 -133q0 -70 -65.5 -118t-143.5 -48q-102 0 -102 66z" />
<glyph unicode="&#xe8;" horiz-adv-x="708" d="M90 186q0 117 70 260q84 174 235 291q127 99 246 99q57 0 96 -41q33 -37 33 -82q0 -201 -498 -340q-29 -70 -28 -183q0 -51 27.5 -83.5t70.5 -32.5q78 0 215 119q35 0 27 -35q-152 -186 -328 -187q-84 0 -129 70q-37 59 -37 145zM293 434q168 51 274 152q80 76 80 139 q0 47 -47 47q-66 0 -158 -100.5t-149 -237.5zM305 1237q0 27 37 53q29 20 51 21q35 0 70 -66l174 -321q-2 -25 -33 -25l-264 277q-35 37 -35 61z" />
<glyph unicode="&#xe9;" horiz-adv-x="708" d="M90 186q0 117 70 260q84 174 235 291q127 99 246 99q57 0 96 -41q33 -37 33 -82q0 -201 -498 -340q-29 -70 -28 -183q0 -51 27.5 -83.5t70.5 -32.5q78 0 215 119q35 0 27 -35q-152 -186 -328 -187q-84 0 -129 70q-37 59 -37 145zM293 434q168 51 274 152q80 76 80 139 q0 47 -47 47q-66 0 -158 -100.5t-149 -237.5zM557 924l174 321q35 66 70 66q23 0 51 -21q37 -27 37 -53q0 -24 -35 -61l-264 -277q-29 0 -33 25z" />
<glyph unicode="&#xea;" horiz-adv-x="708" d="M90 186q0 117 70 260q84 174 235 291q127 99 246 99q57 0 96 -41q33 -37 33 -82q0 -201 -498 -340q-29 -70 -28 -183q0 -51 27.5 -83.5t70.5 -32.5q78 0 215 119q35 0 27 -35q-152 -186 -328 -187q-84 0 -129 70q-37 59 -37 145zM293 434q168 51 274 152q80 76 80 139 q0 47 -47 47q-66 0 -158 -100.5t-149 -237.5zM344 946l260 354q25 35 49 35q23 0 37 -41l125 -352q-8 -29 -41 -22l-123 215q-18 31 -24 30q-10 0 -35 -26l-211 -224q-33 -4 -37 31z" />
<glyph unicode="&#xeb;" horiz-adv-x="708" d="M90 186q0 117 70 260q84 174 235 291q127 99 246 99q57 0 96 -41q33 -37 33 -82q0 -201 -498 -340q-29 -70 -28 -183q0 -51 27.5 -83.5t70.5 -32.5q78 0 215 119q35 0 27 -35q-152 -186 -328 -187q-84 0 -129 70q-37 59 -37 145zM293 434q168 51 274 152q80 76 80 139 q0 47 -47 47q-66 0 -158 -100.5t-149 -237.5zM340 1071q0 49 31.5 82t72.5 33q78 0 78 -82q0 -53 -30.5 -84t-71.5 -31q-80 0 -80 82zM696 1071q0 49 32 82t73 33q78 0 78 -82q0 -53 -31 -84t-72 -31q-80 0 -80 82z" />
<glyph unicode="&#xec;" horiz-adv-x="569" d="M106 45l261 621q16 39 -5 39q-37 0 -169 -109q-35 4 -27 35q78 90 186 151q94 53 152 54q12 0 33 -21q18 -16 -13 -90l-243 -582q-18 -45 6 -45q27 0 94.5 47.5t118.5 104.5q31 -2 30 -35q-31 -57 -149 -143q-139 -100 -234 -101q-25 0 -38 25.5t-3 48.5zM188 1237 q0 27 37 53q29 20 51 21q35 0 70 -66l174 -321q-2 -25 -33 -25l-264 277q-35 37 -35 61z" />
<glyph unicode="&#xed;" horiz-adv-x="569" d="M106 45l261 621q16 39 -5 39q-37 0 -169 -109q-35 4 -27 35q78 90 186 151q94 53 152 54q12 0 33 -21q18 -16 -13 -90l-243 -582q-18 -45 6 -45q27 0 94.5 47.5t118.5 104.5q31 -2 30 -35q-31 -57 -149 -143q-139 -100 -234 -101q-25 0 -38 25.5t-3 48.5zM418 924 l174 321q35 66 70 66q23 0 51 -21q37 -27 37 -53q0 -24 -35 -61l-264 -277q-29 0 -33 25z" />
<glyph unicode="&#xee;" horiz-adv-x="569" d="M106 45l261 621q16 39 -5 39q-37 0 -169 -109q-35 4 -27 35q78 90 186 151q94 53 152 54q12 0 33 -21q18 -16 -13 -90l-243 -582q-18 -45 6 -45q27 0 94.5 47.5t118.5 104.5q31 -2 30 -35q-31 -57 -149 -143q-139 -100 -234 -101q-25 0 -38 25.5t-3 48.5zM246 946 l260 354q25 35 49 35q23 0 37 -41l125 -352q-8 -29 -41 -22l-123 215q-18 31 -25 30q-10 0 -34 -26l-211 -224q-33 -4 -37 31z" />
<glyph unicode="&#xef;" horiz-adv-x="569" d="M106 45l261 621q16 39 -5 39q-37 0 -169 -109q-35 4 -27 35q78 90 186 151q94 53 152 54q12 0 33 -21q18 -16 -13 -90l-243 -582q-18 -45 6 -45q27 0 94.5 47.5t118.5 104.5q31 -2 30 -35q-31 -57 -149 -143q-139 -100 -234 -101q-25 0 -38 25.5t-3 48.5zM254 1071 q0 49 31.5 82t72.5 33q78 0 78 -82q0 -53 -30.5 -84t-71.5 -31q-80 0 -80 82zM610 1071q0 49 32 82t73 33q78 0 78 -82q0 -53 -31 -84t-72 -31q-80 0 -80 82z" />
<glyph unicode="&#xf0;" horiz-adv-x="827" d="M96 244q6 102 64 227q63 135 159 231q135 133 273 134q49 0 94 -23q10 129 -41 268l-256 -129q-41 27 -20 66l254 129q-74 229 -234 283q-6 25 19 34q217 -55 319 -268l260 131q48 -18 23 -65l-252 -127q80 -193 73 -394q-10 -391 -239 -628q-137 -141 -291 -142 q-100 0 -156.5 72t-48.5 201zM233 164q-8 -131 84 -131q82 0 162 106q66 88 128.5 252t66.5 248q8 135 -74 135q-88 0 -162 -98q-84 -113 -145 -275q-53 -147 -60 -237z" />
<glyph unicode="&#xf1;" horiz-adv-x="1026" d="M119 8q0 6 4 17q113 309 237 645q18 47 -6 47q-70 0 -186 -103q-29 0 -25 31q59 82 144.5 136.5t161.5 54.5q59 0 59 -54q0 -14 -6 -30l-140 -359l7 -4q123 186 247 307q147 139 254 140q115 0 115 -111q0 -51 -33 -143q-92 -219 -190 -453q-14 -39 4 -39q27 0 88 43 t104 96q33 4 33 -28q-57 -96 -161.5 -163t-190.5 -67q-14 0 -31.5 16.5t-17.5 35.5q0 18 49 135q59 150 166 403q43 94 43 150q0 49 -33 49q-37 0 -118 -69.5t-165 -174.5q-102 -129 -313 -520q-12 -25 -37 -25q-63 0 -63 37zM432 942q25 111 78 170q37 41 117 41h223 q84 0 115 33q20 23 47 59q23 14 35 -8q-25 -86 -82 -152q-33 -36 -103 -36h-219q-80 0 -123 -39q-35 -31 -57 -78q-20 -12 -31 10z" />
<glyph unicode="&#xf2;" horiz-adv-x="831" d="M96 244q6 104 64 227q61 137 159 231q140 134 283 134q106 0 160.5 -72t48.5 -186q-6 -100 -53 -218q-59 -141 -164 -247q-137 -141 -293 -142q-100 0 -156.5 72t-48.5 201zM233 164q-8 -131 84 -131q82 0 162 106q66 88 127.5 252t63.5 248q4 135 -82 135 q-76 0 -150 -98q-84 -113 -145 -275q-53 -147 -60 -237zM326 1237q0 27 36 53q29 20 52 21q35 0 69 -66l174 -321q-1 -25 -32 -25l-265 277q-35 37 -34 61z" />
<glyph unicode="&#xf3;" horiz-adv-x="831" d="M96 244q6 104 64 227q61 137 159 231q140 134 283 134q106 0 160.5 -72t48.5 -186q-6 -100 -53 -218q-59 -141 -164 -247q-137 -141 -293 -142q-100 0 -156.5 72t-48.5 201zM233 164q-8 -131 84 -131q82 0 162 106q66 88 127.5 252t63.5 248q4 135 -82 135 q-76 0 -150 -98q-84 -113 -145 -275q-53 -147 -60 -237zM569 924l174 321q35 66 70 66q23 0 51 -21q37 -27 37 -53q0 -24 -35 -61l-264 -277q-29 0 -33 25z" />
<glyph unicode="&#xf4;" horiz-adv-x="831" d="M96 244q6 104 64 227q61 137 159 231q140 134 283 134q106 0 160.5 -72t48.5 -186q-6 -100 -53 -218q-59 -141 -164 -247q-137 -141 -293 -142q-100 0 -156.5 72t-48.5 201zM233 164q-8 -131 84 -131q82 0 162 106q66 88 127.5 252t63.5 248q4 135 -82 135 q-76 0 -150 -98q-84 -113 -145 -275q-53 -147 -60 -237zM377 946l260 354q25 35 49 35q23 0 37 -41l125 -352q-8 -29 -41 -22l-123 215q-18 31 -25 30q-10 0 -34 -26l-211 -224q-33 -4 -37 31z" />
<glyph unicode="&#xf5;" horiz-adv-x="831" d="M96 244q6 104 64 227q61 137 159 231q140 134 283 134q106 0 160.5 -72t48.5 -186q-6 -100 -53 -218q-59 -141 -164 -247q-137 -141 -293 -142q-100 0 -156.5 72t-48.5 201zM233 164q-8 -131 84 -131q82 0 162 106q66 88 127.5 252t63.5 248q4 135 -82 135 q-76 0 -150 -98q-84 -113 -145 -275q-53 -147 -60 -237zM350 942q25 111 78 170q37 41 117 41h223q84 0 115 33q20 23 47 59q23 14 35 -8q-25 -86 -82 -152q-33 -36 -103 -36h-219q-80 0 -123 -39q-35 -31 -57 -78q-20 -12 -31 10z" />
<glyph unicode="&#xf6;" horiz-adv-x="831" d="M96 244q6 104 64 227q61 137 159 231q140 134 283 134q106 0 160.5 -72t48.5 -186q-6 -100 -53 -218q-59 -141 -164 -247q-137 -141 -293 -142q-100 0 -156.5 72t-48.5 201zM233 164q-8 -131 84 -131q82 0 162 106q66 88 127.5 252t63.5 248q4 135 -82 135 q-76 0 -150 -98q-84 -113 -145 -275q-53 -147 -60 -237zM365 1071q0 49 31.5 82t72.5 33q78 0 78 -82q0 -53 -31 -84t-72 -31q-80 0 -79 82zM721 1071q0 49 31.5 82t72.5 33q78 0 78 -82q0 -53 -30.5 -84t-71.5 -31q-80 0 -80 82z" />
<glyph unicode="&#xf7;" horiz-adv-x="1146" d="M242 371v100h788v-100h-788zM539 172q0 37 26.5 63.5t65.5 26.5q35 0 62.5 -26.5t27.5 -63.5t-26.5 -64.5t-63.5 -27.5q-39 0 -65.5 26.5t-26.5 65.5zM539 672q0 37 26.5 63.5t65.5 26.5q35 0 62.5 -26.5t27.5 -63.5t-26.5 -64.5t-63.5 -27.5q-39 0 -65.5 26.5 t-26.5 65.5z" />
<glyph unicode="&#xf8;" horiz-adv-x="831" d="M96 244q8 104 64 227q63 137 159 231q137 133 285 134q51 0 82 -15l64 97q43 8 53 -27l-66 -103q82 -63 74 -210q-4 -100 -53 -218q-57 -141 -162 -247q-137 -141 -293 -142q-45 0 -88 17l-61 -97q-14 -6 -31 4.5t-21 26.5l64 98q-80 70 -70 224zM219 164q0 -29 8 -49 l4 -4l412 645q-14 18 -55 18q-80 0 -160 -100q-88 -111 -152 -273q-57 -150 -57 -237zM260 55q27 -23 59 -22q92 0 175 106q68 88 130 252t62 248q0 23 -6 53h-8z" />
<glyph unicode="&#xf9;" horiz-adv-x="1015" d="M119 592q43 68 165 156t189 88q20 0 42 -15.5t22 -34.5q0 -6 -2 -12l-230 -598q-10 -25 -10 -43q0 -27 24 -27q47 0 220 170q119 117 225 295q68 127 135 252q31 6 62.5 -6t37.5 -31q-76 -197 -239 -634q-18 -51 8 -52q27 0 94 56q61 51 107 104q35 8 37 -29 q-43 -80 -158 -165q-123 -94 -201 -95q-20 0 -36.5 17.5t-16.5 38.5q0 8 2 16l139 375l-4 2q-131 -164 -270 -295q-166 -154 -242 -154q-78 0 -78 86q0 39 19 88l188 498q23 59 0 59q-59 0 -194 -141q-14 -2 -25.5 7.5t-9.5 23.5zM430 1237q0 27 37 53q29 20 51 21 q35 0 70 -66l174 -321q-2 -25 -33 -25l-264 277q-35 37 -35 61z" />
<glyph unicode="&#xfa;" horiz-adv-x="1015" d="M119 592q43 68 165 156t189 88q20 0 42 -15.5t22 -34.5q0 -6 -2 -12l-230 -598q-10 -25 -10 -43q0 -27 24 -27q47 0 220 170q119 117 225 295q68 127 135 252q31 6 62.5 -6t37.5 -31q-76 -197 -239 -634q-18 -51 8 -52q27 0 94 56q61 51 107 104q35 8 37 -29 q-43 -80 -158 -165q-123 -94 -201 -95q-20 0 -36.5 17.5t-16.5 38.5q0 8 2 16l139 375l-4 2q-131 -164 -270 -295q-166 -154 -242 -154q-78 0 -78 86q0 39 19 88l188 498q23 59 0 59q-59 0 -194 -141q-14 -2 -25.5 7.5t-9.5 23.5zM676 924l174 321q35 66 70 66q23 0 51 -21 q37 -27 37 -53q0 -24 -35 -61l-264 -277q-29 0 -33 25z" />
<glyph unicode="&#xfb;" horiz-adv-x="1015" d="M119 592q43 68 165 156t189 88q20 0 42 -15.5t22 -34.5q0 -6 -2 -12l-230 -598q-10 -25 -10 -43q0 -27 24 -27q47 0 220 170q119 117 225 295q68 127 135 252q31 6 62.5 -6t37.5 -31q-76 -197 -239 -634q-18 -51 8 -52q27 0 94 56q61 51 107 104q35 8 37 -29 q-43 -80 -158 -165q-123 -94 -201 -95q-20 0 -36.5 17.5t-16.5 38.5q0 8 2 16l139 375l-4 2q-131 -164 -270 -295q-166 -154 -242 -154q-78 0 -78 86q0 39 19 88l188 498q23 59 0 59q-59 0 -194 -141q-14 -2 -25.5 7.5t-9.5 23.5zM469 946l260 354q25 35 49 35q23 0 37 -41 l125 -352q-8 -29 -41 -22l-123 215q-18 31 -24 30q-10 0 -35 -26l-211 -224q-33 -4 -37 31z" />
<glyph unicode="&#xfc;" horiz-adv-x="1015" d="M119 592q43 68 165 156t189 88q20 0 42 -15.5t22 -34.5q0 -6 -2 -12l-230 -598q-10 -25 -10 -43q0 -27 24 -27q47 0 220 170q119 117 225 295q68 127 135 252q31 6 62.5 -6t37.5 -31q-76 -197 -239 -634q-18 -51 8 -52q27 0 94 56q61 51 107 104q35 8 37 -29 q-43 -80 -158 -165q-123 -94 -201 -95q-20 0 -36.5 17.5t-16.5 38.5q0 8 2 16l139 375l-4 2q-131 -164 -270 -295q-166 -154 -242 -154q-78 0 -78 86q0 39 19 88l188 498q23 59 0 59q-59 0 -194 -141q-14 -2 -25.5 7.5t-9.5 23.5zM477 1071q0 49 32 82t73 33q78 0 77 -82 q0 -53 -30.5 -84t-71.5 -31q-80 0 -80 82zM834 1071q0 49 31.5 82t72.5 33q78 0 78 -82q0 -53 -31 -84t-72 -31q-80 0 -79 82z" />
<glyph unicode="&#xfd;" horiz-adv-x="749" d="M-205 -457q0 39 23.5 63.5t58.5 24.5q33 0 56.5 -34.5t56.5 -34.5q45 0 112 57q43 37 95 119q59 94 86 188q45 162 41 467q-4 307 -78 307q-41 0 -119 -155q-31 -8 -39 26q35 111 98.5 188t135.5 77q117 0 124 -349q6 -238 -30 -450h8q96 143 172 352q66 180 76 379 q4 63 49 63q29 0 57 -18q18 -12 19 -41q2 -61 -49 -215q-70 -209 -189 -410q-111 -186 -145 -239q-84 -129 -193 -252q-180 -207 -319 -207q-47 0 -77 27.5t-30 66.5zM506 924l174 321q35 66 70 66q23 0 51 -21q37 -27 37 -53q0 -24 -35 -61l-264 -277q-29 0 -33 25z" />
<glyph unicode="&#xfe;" horiz-adv-x="917" d="M-217 -528q0 12 10 22l45 8q78 14 109 52q16 20 45 100l381 1069q-88 -25 -207 -84q-33 4 -21 39q98 70 254 115l101 280q35 94 35 133q0 33 -29 45l-37 17q-8 6 -8 16q0 12 8 16q129 51 258 62l10 -12q-25 -66 -131 -353l-71 -194q6 0 30.5 2t46.5 2q100 0 174 -43 q104 -61 105 -191q0 -258 -270 -485q-82 -68 -193 -98q-63 -18 -100 -19q-20 0 -64 13q-23 -6 -33 -37l-84 -242q-39 -109 -38 -141q0 -37 55 -45l84 -13q23 -31 -8 -45q-35 0 -447 -12q-10 8 -10 23zM305 143q-12 -33 2 -55q29 -47 76 -47q35 0 92 31q80 47 137 135 q121 186 121 385q0 74 -46 113.5t-116 39.5q-24 0 -53 -4z" />
<glyph unicode="&#xff;" horiz-adv-x="749" d="M-205 -457q0 39 23.5 63.5t58.5 24.5q33 0 56.5 -34.5t56.5 -34.5q45 0 112 57q43 37 95 119q59 94 86 188q45 162 41 467q-4 307 -78 307q-41 0 -119 -155q-31 -8 -39 26q35 111 98.5 188t135.5 77q117 0 124 -349q6 -238 -30 -450h8q96 143 172 352q66 180 76 379 q4 63 49 63q29 0 57 -18q18 -12 19 -41q2 -61 -49 -215q-70 -209 -189 -410q-111 -186 -145 -239q-84 -129 -193 -252q-180 -207 -319 -207q-47 0 -77 27.5t-30 66.5zM324 1071q0 49 31.5 82t72.5 33q78 0 78 -82q0 -53 -31 -84t-72 -31q-80 0 -79 82zM680 1071 q0 49 31.5 82t72.5 33q78 0 78 -82q0 -53 -30.5 -84t-71.5 -31q-80 0 -80 82z" />
<glyph unicode="&#x152;" horiz-adv-x="2004" d="M215 571q8 174 104.5 341t258.5 276q256 172 622 172q80 0 207 -4t184 -4h303q227 0 289 6q-25 -61 -84 -273q-6 -12 -26 -10q-20 0 -25 12q6 61 6 84q0 78 -78 99q-70 18 -217 18h-123q-39 0 -51 -11t-26 -58l-132 -420q-12 -37 -12 -45q0 -14 49 -15h103q127 0 159 9 q82 16 123 92l33 61q6 10 27 10q23 -2 24 -14q-35 -82 -69 -199q-31 -102 -54 -198q-8 -12 -26 -11q-18 0 -25 13v57q0 76 -47 94q-33 14 -164 15h-102q-43 0 -55.5 -8.5t-24.5 -51.5l-84 -276q-43 -141 -43 -185q0 -25 8 -41q20 -43 228 -43q182 0 254 31q90 39 182 182 q8 6 18 7q20 0 29 -19q-16 -55 -57 -137q-47 -96 -84 -133q-203 6 -469 6h-125q-39 0 -105 -4q-72 -6 -98 -6q-82 -4 -193 -4q-301 0 -463.5 157.5t-148.5 427.5zM395 553q-14 -242 117 -377q125 -127 340 -127q90 0 137 25q68 35 101 141l296 940q16 49 17 72q0 35 -43 47 q-86 24 -203 24q-350 0 -565 -249q-180 -213 -197 -496z" />
<glyph unicode="&#x153;" horiz-adv-x="1183" d="M96 223q0 115 57.5 249t157.5 230q137 133 279 134q158 0 184 -185q172 184 346 185q55 0 90 -39t35 -84q0 -203 -506 -340q-37 -74 -37 -176q0 -123 115 -123q78 0 215 119q35 0 27 -35q-152 -186 -328 -187q-125 0 -153 154q-143 -154 -279 -154q-92 0 -147.5 69 t-55.5 183zM236 164q-4 -131 83 -131q80 0 158 106q63 88 123 254q57 158 59 246q5 135 -81 135q-76 0 -146 -98q-80 -113 -139 -275q-55 -147 -57 -237zM760 432q176 53 282 154q80 76 80 139q0 47 -45 47q-57 0 -154.5 -100.5t-162.5 -239.5z" />
<glyph unicode="&#x178;" horiz-adv-x="1155" d="M252 20q0 16 10 25l74 6q72 6 101.5 46t82.5 198l41 121q31 92 31 143q0 45 -17 119l-102 444q-23 102 -41 131q-23 37 -76 45l-51 9q-8 10 -6 28q2 16 12 23q115 -6 217 -6q121 0 220 6q10 -8 10 -25q0 -18 -10 -26l-60 -9q-82 -12 -82 -65q0 -18 6 -47l105 -481 q8 -39 20 -39q10 0 41 36l252 304q197 238 197 258q0 25 -60 34l-51 9q-10 10 -10 26q2 16 14 25q121 -6 213 -6q84 0 185 6q10 -6 10 -25q0 -16 -10 -26l-43 -9q-80 -14 -115 -47q-94 -86 -201 -211l-233 -274q-111 -129 -138 -174q-37 -57 -73 -174l-39 -123 q-45 -141 -45 -182q0 -55 84 -62l73 -6q10 -8 9 -27q-4 -20 -15 -24q-172 6 -274 6q-104 0 -244 -6q-12 8 -12 26zM639 1534q0 53 33 88t76 35q39 0 62.5 -26.5t23.5 -61.5q0 -55 -33 -88t-78 -33q-84 0 -84 86zM1044 1534q0 53 33 88t76 35q39 0 62.5 -26.5t23.5 -61.5 q0 -55 -33 -88t-78 -33q-84 0 -84 86z" />
<glyph unicode="&#x2c6;" horiz-adv-x="737" d="M330 946l260 354q25 35 49 35q23 0 37 -41l125 -352q-8 -29 -41 -22l-123 215q-18 31 -25 30q-10 0 -34 -26l-211 -224q-33 -4 -37 31z" />
<glyph unicode="&#x2dc;" horiz-adv-x="737" d="M303 942q25 111 78 170q37 41 117 41h223q84 0 115 33q20 23 47 59q23 14 35 -8q-25 -86 -82 -152q-33 -36 -103 -36h-219q-80 0 -123 -39q-35 -31 -57 -78q-20 -12 -31 10z" />
<glyph unicode="&#x2000;" horiz-adv-x="861" />
<glyph unicode="&#x2001;" horiz-adv-x="1722" />
<glyph unicode="&#x2002;" horiz-adv-x="861" />
<glyph unicode="&#x2003;" horiz-adv-x="1722" />
<glyph unicode="&#x2004;" horiz-adv-x="574" />
<glyph unicode="&#x2005;" horiz-adv-x="430" />
<glyph unicode="&#x2006;" horiz-adv-x="287" />
<glyph unicode="&#x2007;" horiz-adv-x="287" />
<glyph unicode="&#x2008;" horiz-adv-x="215" />
<glyph unicode="&#x2009;" horiz-adv-x="344" />
<glyph unicode="&#x200a;" horiz-adv-x="95" />
<glyph unicode="&#x2010;" horiz-adv-x="655" d="M111 395q-1 51 26 76l498 45q12 -14 12 -43q0 -49 -29 -74l-497 -45q-10 14 -10 41z" />
<glyph unicode="&#x2011;" horiz-adv-x="655" d="M111 395q-1 51 26 76l498 45q12 -14 12 -43q0 -49 -29 -74l-497 -45q-10 14 -10 41z" />
<glyph unicode="&#x2012;" horiz-adv-x="655" d="M111 395q-1 51 26 76l498 45q12 -14 12 -43q0 -49 -29 -74l-497 -45q-10 14 -10 41z" />
<glyph unicode="&#x2013;" d="M0 371l33 100h1057l-33 -100h-1057z" />
<glyph unicode="&#x2014;" horiz-adv-x="2048" d="M0 371l33 100h2081l-33 -100h-2081z" />
<glyph unicode="&#x2018;" horiz-adv-x="425" d="M332 1139q0 98 102 182q84 70 199 102q25 -12 12 -39q-182 -86 -182 -206q0 -55 65 -78q31 -10 31 -43q0 -31 -25.5 -53.5t-60.5 -22.5q-66 0 -106 51q-35 45 -35 107z" />
<glyph unicode="&#x2019;" horiz-adv-x="425" d="M346 1001q182 86 182 207q0 55 -65 78q-31 10 -31 43q0 31 25.5 53.5t60.5 22.5q66 0 107 -51q35 -45 34 -107q0 -98 -100 -182q-86 -70 -201 -102q-25 12 -12 38z" />
<glyph unicode="&#x201a;" horiz-adv-x="425" d="M-31 -170q182 86 183 207q0 55 -66 78q-31 10 -31 43q0 31 25.5 53t60.5 22q66 0 107 -51q35 -45 35 -106q0 -98 -101 -182q-86 -70 -200 -103q-25 12 -13 39z" />
<glyph unicode="&#x201c;" horiz-adv-x="778" d="M344 1139q0 98 102 182q84 70 199 102q25 -12 12 -39q-182 -86 -182 -206q0 -55 66 -78q31 -10 30 -43q0 -31 -25.5 -53.5t-60.5 -22.5q-66 0 -106 51q-35 45 -35 107zM676 1139q0 98 102 182q84 70 199 102q25 -12 12 -39q-182 -86 -182 -206q0 -55 65 -78 q31 -10 31 -43q0 -31 -25.5 -53.5t-60.5 -22.5q-66 0 -106 51q-35 45 -35 107z" />
<glyph unicode="&#x201d;" horiz-adv-x="778" d="M354 1001q182 86 183 207q0 55 -66 78q-31 10 -31 43q0 31 25.5 53.5t60.5 22.5q66 0 107 -51q35 -45 35 -107q0 -98 -101 -182q-86 -70 -200 -102q-25 12 -13 38zM686 1001q182 86 182 207q0 55 -65 78q-31 10 -31 43q0 31 25.5 53.5t60.5 22.5q66 0 107 -51 q35 -45 34 -107q0 -98 -100 -182q-86 -70 -201 -102q-25 12 -12 38z" />
<glyph unicode="&#x201e;" horiz-adv-x="778" d="M-25 -170q182 86 183 207q0 55 -66 78q-31 10 -31 43q0 31 25.5 53t60.5 22q66 0 107 -51q35 -45 35 -106q0 -98 -101 -182q-86 -70 -200 -103q-25 12 -13 39zM307 -170q182 86 182 207q0 55 -65 78q-31 10 -31 43q0 31 25.5 53t60.5 22q66 0 107 -51q35 -45 35 -106 q0 -98 -101 -182q-86 -70 -201 -103q-25 12 -12 39z" />
<glyph unicode="&#x2022;" horiz-adv-x="798" d="M225 688q0 119 83 202t202 83t202 -83t83 -202t-83 -200.5t-202 -81.5t-202 81.5t-83 200.5z" />
<glyph unicode="&#x2026;" horiz-adv-x="2048" d="M170 68q0 53 36 90t81 37q90 0 90 -93q0 -59 -35 -95t-82 -36q-90 0 -90 97zM852 68q0 53 36 90t81 37q90 0 90 -93q0 -59 -35 -95t-82 -36q-90 0 -90 97zM1534 68q0 53 36 90t81 37q90 0 90 -93q0 -59 -35 -95t-82 -36q-90 0 -90 97z" />
<glyph unicode="&#x202f;" horiz-adv-x="344" />
<glyph unicode="&#x2039;" horiz-adv-x="532" d="M162 389q-20 31 12 64q53 53 157.5 155.5t153.5 151.5q25 4 29 -27l-205 -287q-16 -24 -10 -49l82 -297q-10 -31 -39 -20q-106 190 -180 309z" />
<glyph unicode="&#x203a;" horiz-adv-x="532" d="M104 106l205 287q16 25 10 49l-81 297q10 31 38 21q106 -190 181 -309q20 -31 -13 -64q-53 -53 -157.5 -155.5t-153.5 -151.5q-25 -5 -29 26z" />
<glyph unicode="&#x205f;" horiz-adv-x="430" />
<glyph unicode="&#x2122;" horiz-adv-x="2201" d="M283 1190q33 96 53 203h26q12 -33 50 -39q10 -2 67 -2h522q86 0 111 28l27 -4q-29 -90 -21 -198q-4 -8 -20 -11q-16 0 -23 7q-12 78 -39.5 100t-124.5 22h-92q-33 0 -39 -6t-6 -43v-514q0 -94 10 -121q16 -35 72 -39l53 -4q8 -8 9 -24q0 -16 -11 -21q-156 4 -202 4 q-53 0 -201 -4q-10 4 -12 21q0 16 10 24l61 4q55 4 70 60q8 24 8 100v514q0 37 -6 43t-39 6h-76q-86 0 -129 -24.5t-63 -91.5q-10 -6 -25 -2q-18 4 -20 12zM1176 547q-2 16 6 22l28 4q43 6 61.5 23.5t22.5 71.5q10 80 25 286q8 172 8 252q0 55 -18.5 73.5t-73.5 27.5l-31 4 q-6 10 -4 24q0 16 8 21q86 -4 135 -4q78 0 123 4q6 -86 101 -266l121 -230q59 -113 75 -129q16 16 86 148l97 180q43 80 67 131q45 96 64 166q45 -4 110 -4q27 0 129 4q10 -4 11 -23q0 -16 -9 -22l-37 -4q-88 -10 -88 -111q0 -319 11 -528q2 -47 10 -64q12 -27 51 -31l43 -4 q8 -6 8 -22q-2 -16 -10 -23q-90 4 -145 4q-70 0 -181 -4q-10 4 -12 23q0 16 10 22l41 4q47 4 57.5 22t8.5 77l-8 442q0 20 -4 43q-6 0 -78 -133l-117 -219q-117 -219 -139 -285q-14 -10 -27 -2q-27 76 -115 252l-120 242q-68 135 -82 145q-4 -10 -13 -188q-8 -156 -6 -269 q0 -74 13.5 -98t60.5 -29l39 -4q16 -27 -2 -45q-78 4 -146 4q-39 0 -157 -4q-8 6 -8 23z" />
<glyph unicode="&#x25fc;" horiz-adv-x="839" d="M0 0v840h840v-840h-840z" />
</font>
</defs>
</svg>
